<?xml version="1.0" encoding="UTF-8"?>
<!DOCTYPE score-partwise PUBLIC "-//Recordare//DTD MusicXML 3.1 Partwise//EN" "http://www.musicxml.org/dtds/partwise.dtd">
<score-partwise version="3.1">
  <work>
    <work-title>The Wellerman</work-title>
    </work>
  <identification>
    <creator type="arranger">Nathan Evans / The Longest Johns</creator>
    <creator type="lyricist">Anonymous</creator>
    <encoding>
      <software>MuseScore 3.6.1</software>
      <encoding-date>2021-02-23</encoding-date>
      <supports element="accidental" type="yes"/>
      <supports element="beam" type="yes"/>
      <supports element="print" attribute="new-page" type="yes" value="yes"/>
      <supports element="print" attribute="new-system" type="yes" value="yes"/>
      <supports element="stem" type="yes"/>
      </encoding>
    </identification>
  <defaults>
    <scaling>
      <millimeters>6.2</millimeters>
      <tenths>40</tenths>
      </scaling>
    <page-layout>
      <page-height>1915.68</page-height>
      <page-width>1355.23</page-width>
      <page-margins type="both">
        <left-margin>96.7742</left-margin>
        <right-margin>96.7742</right-margin>
        <top-margin>96.7742</top-margin>
        <bottom-margin>96.7742</bottom-margin>
        </page-margins>
      </page-layout>
    <word-font font-family="Edwin" font-size="10"/>
    <lyric-font font-family="Edwin" font-size="10"/>
    </defaults>
  <credit page="1">
    <credit-type>title</credit-type>
    <credit-words default-x="677.613" default-y="1818.91" justify="center" valign="top" font-size="22">The Wellerman</credit-words>
    </credit>
  <credit page="1">
    <credit-type>lyricist</credit-type>
    <credit-words default-x="96.7742" default-y="1658.11" justify="left" valign="bottom">Folksong
</credit-words>
    <credit-words>from New Zealand
</credit-words>
    </credit>
  <credit page="1">
    <credit-type>subtitle</credit-type>
    <credit-words default-x="677.613" default-y="1761.95" justify="center" valign="top" font-size="11">as sung by Nathan Evans*
</credit-words>
    </credit>
  <part-list>
    <score-part id="P1">
      <part-name>Klassische Gitarre</part-name>
      <part-abbreviation>Git.</part-abbreviation>
      <score-instrument id="P1-I1">
        <instrument-name>Klassische Gitarre</instrument-name>
        </score-instrument>
      <midi-device id="P1-I1" port="1"></midi-device>
      <midi-instrument id="P1-I1">
        <midi-channel>1</midi-channel>
        <midi-program>25</midi-program>
        <volume>78.7402</volume>
        <pan>0</pan>
        </midi-instrument>
      </score-part>
    </part-list>
  <part id="P1">
    <measure number="1" width="173.74">
      <print>
        <system-layout>
          <system-margins>
            <left-margin>0.00</left-margin>
            <right-margin>0.00</right-margin>
            </system-margins>
          <top-system-distance>243.38</top-system-distance>
          </system-layout>
        </print>
      <attributes>
        <divisions>2</divisions>
        <key>
          <fifths>-3</fifths>
          </key>
        <time symbol="cut">
          <beats>2</beats>
          <beat-type>2</beat-type>
          </time>
        <clef>
          <sign>G</sign>
          <line>2</line>
          <clef-octave-change>-1</clef-octave-change>
          </clef>
        </attributes>
      <direction placement="above">
        <direction-type>
          <metronome parentheses="no" default-x="-42.02" relative-x="22.74" relative-y="24.01">
            <beat-unit>half</beat-unit>
            <per-minute>95</per-minute>
            </metronome>
          </direction-type>
        <sound tempo="190"/>
        </direction>
      <note default-x="123.74" default-y="-55.00">
        <pitch>
          <step>B</step>
          <alter>-1</alter>
          <octave>2</octave>
          </pitch>
        <duration>2</duration>
        <voice>1</voice>
        <type>quarter</type>
        <stem>up</stem>
        <lyric number="1" default-x="6.50" default-y="-54.97" relative-y="-30.00">
          <syllabic>single</syllabic>
          <text>There</text>
          </lyric>
        </note>
      </measure>
    <measure number="2" width="247.31">
      <harmony print-frame="no">
        <root>
          <root-step>C</root-step>
          </root>
        <kind text="m">minor</kind>
        </harmony>
      <note default-x="25.01" default-y="-50.00">
        <pitch>
          <step>C</step>
          <octave>3</octave>
          </pitch>
        <duration>2</duration>
        <voice>1</voice>
        <type>quarter</type>
        <stem>up</stem>
        <lyric number="1" default-x="6.50" default-y="-54.97" relative-y="-30.00">
          <syllabic>single</syllabic>
          <text>once</text>
          </lyric>
        </note>
      <note default-x="76.89" default-y="-50.00">
        <pitch>
          <step>C</step>
          <octave>3</octave>
          </pitch>
        <duration>1</duration>
        <voice>1</voice>
        <type>eighth</type>
        <stem>up</stem>
        <beam number="1">begin</beam>
        <lyric number="1" default-x="6.50" default-y="-54.97" relative-y="-30.00">
          <syllabic>single</syllabic>
          <text>was</text>
          </lyric>
        </note>
      <note default-x="109.32" default-y="-50.00">
        <pitch>
          <step>C</step>
          <octave>3</octave>
          </pitch>
        <duration>1</duration>
        <voice>1</voice>
        <type>eighth</type>
        <stem>up</stem>
        <beam number="1">end</beam>
        <lyric number="1" default-x="6.50" default-y="-54.97" relative-y="-30.00">
          <syllabic>single</syllabic>
          <text>a</text>
          </lyric>
        </note>
      <note default-x="141.75" default-y="-50.00">
        <pitch>
          <step>C</step>
          <octave>3</octave>
          </pitch>
        <duration>2</duration>
        <voice>1</voice>
        <type>quarter</type>
        <stem>up</stem>
        <lyric number="1" default-x="6.50" default-y="-54.97" relative-y="-30.00">
          <syllabic>single</syllabic>
          <text>ship</text>
          </lyric>
        </note>
      <note default-x="193.63" default-y="-40.00">
        <pitch>
          <step>E</step>
          <alter>-1</alter>
          <octave>3</octave>
          </pitch>
        <duration>2</duration>
        <voice>1</voice>
        <type>quarter</type>
        <stem>up</stem>
        <lyric number="1" default-x="6.50" default-y="-54.97" relative-y="-30.00">
          <syllabic>single</syllabic>
          <text>that</text>
          </lyric>
        </note>
      </measure>
    <measure number="3" width="228.06">
      <note default-x="20.23" default-y="-30.00">
        <pitch>
          <step>G</step>
          <octave>3</octave>
          </pitch>
        <duration>2</duration>
        <voice>1</voice>
        <type>quarter</type>
        <stem>up</stem>
        <lyric number="1" default-x="6.50" default-y="-54.97" relative-y="-30.00">
          <syllabic>single</syllabic>
          <text>put</text>
          </lyric>
        </note>
      <note default-x="67.78" default-y="-30.00">
        <pitch>
          <step>G</step>
          <octave>3</octave>
          </pitch>
        <duration>2</duration>
        <voice>1</voice>
        <type>quarter</type>
        <stem>up</stem>
        <lyric number="1" default-x="6.50" default-y="-54.97" relative-y="-30.00">
          <syllabic>single</syllabic>
          <text>to</text>
          </lyric>
        </note>
      <note default-x="115.33" default-y="-30.00">
        <pitch>
          <step>G</step>
          <octave>3</octave>
          </pitch>
        <duration>2</duration>
        <voice>1</voice>
        <type>quarter</type>
        <stem>up</stem>
        <lyric number="1" default-x="9.11" default-y="-54.97" relative-y="-30.00">
          <syllabic>single</syllabic>
          <text>sea,</text>
          </lyric>
        </note>
      <note default-x="164.88" default-y="-30.00">
        <pitch>
          <step>G</step>
          <octave>3</octave>
          </pitch>
        <duration>1</duration>
        <voice>1</voice>
        <type>eighth</type>
        <stem>up</stem>
        <beam number="1">begin</beam>
        <lyric number="1" default-x="2.49" default-y="-54.97" relative-x="-4.01" relative-y="-31.34">
          <syllabic>single</syllabic>
          <text>and</text>
          </lyric>
        </note>
      <note default-x="196.43" default-y="-30.00">
        <pitch>
          <step>G</step>
          <octave>3</octave>
          </pitch>
        <duration>1</duration>
        <voice>1</voice>
        <type>eighth</type>
        <stem>up</stem>
        <beam number="1">end</beam>
        <lyric number="1" default-x="5.14" default-y="-54.97" relative-x="-1.36" relative-y="-31.36">
          <syllabic>single</syllabic>
          <text>the</text>
          </lyric>
        </note>
      </measure>
    <measure number="4" width="298.78">
      <harmony print-frame="no">
        <root>
          <root-step>F</root-step>
          </root>
        <kind text="m">minor</kind>
        </harmony>
      <note default-x="27.11" default-y="-25.00">
        <pitch>
          <step>A</step>
          <alter>-1</alter>
          <octave>3</octave>
          </pitch>
        <duration>2</duration>
        <voice>1</voice>
        <type>quarter</type>
        <stem>up</stem>
        <lyric number="1" default-x="7.84" default-y="-54.97" relative-x="1.34" relative-y="-31.34">
          <syllabic>single</syllabic>
          <text>name</text>
          </lyric>
        </note>
      <note default-x="86.76" default-y="-35.00">
        <pitch>
          <step>F</step>
          <octave>3</octave>
          </pitch>
        <duration>1</duration>
        <voice>1</voice>
        <type>eighth</type>
        <stem>up</stem>
        <beam number="1">begin</beam>
        <lyric number="1" default-x="7.84" default-y="-54.97" relative-x="1.34" relative-y="-31.34">
          <syllabic>single</syllabic>
          <text>of</text>
          </lyric>
        </note>
      <note default-x="124.04" default-y="-35.00">
        <pitch>
          <step>F</step>
          <octave>3</octave>
          </pitch>
        <duration>1</duration>
        <voice>1</voice>
        <type>eighth</type>
        <stem>up</stem>
        <beam number="1">end</beam>
        <lyric number="1" default-x="7.84" default-y="-54.97" relative-x="1.34" relative-y="-31.34">
          <syllabic>single</syllabic>
          <text>the</text>
          </lyric>
        </note>
      <note default-x="162.73" default-y="-35.00">
        <pitch>
          <step>F</step>
          <octave>3</octave>
          </pitch>
        <duration>2</duration>
        <voice>1</voice>
        <type>quarter</type>
        <stem>up</stem>
        <lyric number="1" default-x="7.84" default-y="-54.97" relative-x="1.34" relative-y="-31.34">
          <syllabic>single</syllabic>
          <text>ship</text>
          </lyric>
        </note>
      <note default-x="222.38" default-y="-25.00">
        <pitch>
          <step>A</step>
          <alter>-1</alter>
          <octave>3</octave>
          </pitch>
        <duration>1</duration>
        <voice>1</voice>
        <type>eighth</type>
        <stem>up</stem>
        <beam number="1">begin</beam>
        <lyric number="1" default-x="7.84" default-y="-54.97" relative-x="1.34" relative-y="-31.34">
          <syllabic>single</syllabic>
          <text>was</text>
          </lyric>
        </note>
      <note default-x="259.70" default-y="-25.00">
        <pitch>
          <step>A</step>
          <alter>-1</alter>
          <octave>3</octave>
          </pitch>
        <duration>1</duration>
        <voice>1</voice>
        <type>eighth</type>
        <stem>up</stem>
        <beam number="1">end</beam>
        <lyric number="1" default-x="7.84" default-y="-54.97" relative-x="1.34" relative-y="-31.34">
          <syllabic>single</syllabic>
          <text>the</text>
          </lyric>
        </note>
      </measure>
    <measure number="5" width="213.79">
      <harmony print-frame="no">
        <root>
          <root-step>C</root-step>
          </root>
        <kind text="m">minor</kind>
        </harmony>
      <note default-x="17.95" default-y="-25.00">
        <pitch>
          <step>A</step>
          <alter>-1</alter>
          <octave>3</octave>
          </pitch>
        <duration>1</duration>
        <voice>1</voice>
        <type>eighth</type>
        <stem>down</stem>
        <beam number="1">begin</beam>
        <lyric number="1" default-x="6.50" default-y="-54.97" relative-y="-30.00">
          <syllabic>begin</syllabic>
          <text>Bil</text>
          </lyric>
        </note>
      <note default-x="47.55" default-y="-15.00">
        <pitch>
          <step>C</step>
          <octave>4</octave>
          </pitch>
        <duration>1</duration>
        <voice>1</voice>
        <type>eighth</type>
        <stem>down</stem>
        <beam number="1">end</beam>
        <lyric number="1" default-x="6.50" default-y="-54.97" relative-y="-30.00">
          <syllabic>end</syllabic>
          <text>ly</text>
          </lyric>
        </note>
      <note default-x="75.90" default-y="-30.00">
        <pitch>
          <step>G</step>
          <octave>3</octave>
          </pitch>
        <duration>2</duration>
        <voice>1</voice>
        <type>quarter</type>
        <stem>up</stem>
        <lyric number="1" default-x="6.50" default-y="-54.97" relative-y="-30.00">
          <syllabic>single</syllabic>
          <text>of</text>
          </lyric>
        </note>
      <note default-x="121.26" default-y="-30.00">
        <pitch>
          <step>G</step>
          <octave>3</octave>
          </pitch>
        <duration>2</duration>
        <voice>1</voice>
        <type>quarter</type>
        <stem>up</stem>
        <lyric number="1" default-x="8.94" default-y="-54.97" relative-y="-30.00">
          <syllabic>single</syllabic>
          <text>Tea,</text>
          </lyric>
        </note>
      <note default-x="166.63" default-y="-30.00">
        <pitch>
          <step>G</step>
          <octave>3</octave>
          </pitch>
        <duration>2</duration>
        <voice>1</voice>
        <type>quarter</type>
        <stem>up</stem>
        <lyric number="1" default-x="6.50" default-y="-54.97" relative-y="-30.00">
          <syllabic>single</syllabic>
          <text>the</text>
          </lyric>
        </note>
      </measure>
    <measure number="6" width="350.91">
      <print new-system="yes">
        <system-layout>
          <system-margins>
            <left-margin>0.00</left-margin>
            <right-margin>0.00</right-margin>
            </system-margins>
          <system-distance>150.00</system-distance>
          </system-layout>
        </print>
      <note default-x="100.22" default-y="-50.00">
        <pitch>
          <step>C</step>
          <octave>3</octave>
          </pitch>
        <duration>2</duration>
        <voice>1</voice>
        <type>quarter</type>
        <stem>up</stem>
        <lyric number="1" default-x="6.50" default-y="-49.97" relative-y="-30.00">
          <syllabic>single</syllabic>
          <text>winds</text>
          </lyric>
        </note>
      <note default-x="162.44" default-y="-50.00">
        <pitch>
          <step>C</step>
          <octave>3</octave>
          </pitch>
        <duration>2</duration>
        <voice>1</voice>
        <type>quarter</type>
        <stem>up</stem>
        <lyric number="1" default-x="6.50" default-y="-49.97" relative-y="-30.00">
          <syllabic>single</syllabic>
          <text>blew</text>
          </lyric>
        </note>
      <note default-x="224.67" default-y="-50.00">
        <pitch>
          <step>C</step>
          <octave>3</octave>
          </pitch>
        <duration>2</duration>
        <voice>1</voice>
        <type>quarter</type>
        <stem>up</stem>
        <lyric number="1" default-x="8.75" default-y="-49.97" relative-y="-30.00">
          <syllabic>single</syllabic>
          <text>up,</text>
          </lyric>
        </note>
      <note default-x="286.89" default-y="-40.00">
        <pitch>
          <step>E</step>
          <alter>-1</alter>
          <octave>3</octave>
          </pitch>
        <duration>2</duration>
        <voice>1</voice>
        <type>quarter</type>
        <stem>up</stem>
        <lyric number="1" default-x="6.50" default-y="-49.97" relative-y="-30.00">
          <syllabic>single</syllabic>
          <text>her</text>
          </lyric>
        </note>
      </measure>
    <measure number="7" width="303.96">
      <note default-x="22.96" default-y="-30.00">
        <pitch>
          <step>G</step>
          <octave>3</octave>
          </pitch>
        <duration>2</duration>
        <voice>1</voice>
        <type>quarter</type>
        <stem>up</stem>
        <lyric number="1" default-x="6.50" default-y="-49.97" relative-y="-30.00">
          <syllabic>single</syllabic>
          <text>bow</text>
          </lyric>
        </note>
      <note default-x="92.76" default-y="-30.00">
        <pitch>
          <step>G</step>
          <octave>3</octave>
          </pitch>
        <duration>2</duration>
        <voice>1</voice>
        <type>quarter</type>
        <stem>up</stem>
        <lyric number="1" default-x="6.50" default-y="-49.97" relative-y="-30.00">
          <syllabic>single</syllabic>
          <text>dipped</text>
          </lyric>
        </note>
      <note default-x="162.56" default-y="-30.00">
        <pitch>
          <step>G</step>
          <octave>3</octave>
          </pitch>
        <duration>2</duration>
        <voice>1</voice>
        <type>quarter</type>
        <stem>up</stem>
        <lyric number="1" default-x="9.19" default-y="-49.97" relative-y="-30.00">
          <syllabic>single</syllabic>
          <text>down,</text>
          </lyric>
        </note>
      <note default-x="232.36" default-y="-30.00">
        <pitch>
          <step>G</step>
          <octave>3</octave>
          </pitch>
        <duration>2</duration>
        <voice>1</voice>
        <type>quarter</type>
        <stem>up</stem>
        <lyric number="1" default-x="6.50" default-y="-49.97" relative-y="-30.00">
          <syllabic>single</syllabic>
          <text>oh</text>
          </lyric>
        </note>
      </measure>
    <measure number="8" width="306.10">
      <harmony print-frame="no">
        <root>
          <root-step>G</root-step>
          </root>
        <kind text="7">dominant</kind>
        </harmony>
      <note default-x="26.00" default-y="-30.00">
        <pitch>
          <step>G</step>
          <octave>3</octave>
          </pitch>
        <duration>2</duration>
        <voice>1</voice>
        <type>quarter</type>
        <stem>up</stem>
        <lyric number="1" default-x="8.92" default-y="-49.97" relative-y="-30.00">
          <syllabic>end</syllabic>
          <text>blow,</text>
          </lyric>
        </note>
      <note default-x="91.48" default-y="-35.00">
        <pitch>
          <step>F</step>
          <octave>3</octave>
          </pitch>
        <duration>2</duration>
        <voice>1</voice>
        <type>quarter</type>
        <stem>up</stem>
        <lyric number="1" default-x="6.50" default-y="-49.97" relative-y="-30.00">
          <syllabic>single</syllabic>
          <text>my</text>
          </lyric>
        </note>
      <note default-x="156.97" default-y="-40.00">
        <pitch>
          <step>E</step>
          <alter>-1</alter>
          <octave>3</octave>
          </pitch>
        <duration>1</duration>
        <voice>1</voice>
        <type>eighth</type>
        <stem>up</stem>
        <beam number="1">begin</beam>
        <lyric number="1" default-x="6.50" default-y="-49.97" relative-y="-30.00">
          <syllabic>begin</syllabic>
          <text>bul</text>
          </lyric>
        </note>
      <note default-x="197.89" default-y="-40.00">
        <pitch>
          <step>E</step>
          <alter>-1</alter>
          <octave>3</octave>
          </pitch>
        <duration>1</duration>
        <voice>1</voice>
        <type>eighth</type>
        <stem>up</stem>
        <beam number="1">end</beam>
        <lyric number="1" default-x="6.50" default-y="-49.97" relative-y="-30.00">
          <syllabic>end</syllabic>
          <text>ly</text>
          </lyric>
        </note>
      <note default-x="238.82" default-y="-45.00">
        <pitch>
          <step>D</step>
          <octave>3</octave>
          </pitch>
        <duration>2</duration>
        <voice>1</voice>
        <type>quarter</type>
        <stem>up</stem>
        <lyric number="1" default-x="9.18" default-y="-49.97" relative-y="-30.00">
          <syllabic>single</syllabic>
          <text>boys,</text>
          </lyric>
        </note>
      </measure>
    <measure number="9" width="200.71">
      <harmony print-frame="no">
        <root>
          <root-step>C</root-step>
          </root>
        <kind text="m">minor</kind>
        </harmony>
      <note default-x="26.15" default-y="-50.00">
        <pitch>
          <step>C</step>
          <octave>3</octave>
          </pitch>
        <duration>4</duration>
        <voice>1</voice>
        <type>half</type>
        <stem>up</stem>
        <lyric number="1" default-x="6.50" default-y="-49.97" relative-y="-30.00">
          <syllabic>single</syllabic>
          <text>blow</text>
          </lyric>
        </note>
      <note default-x="100.48" default-y="-30.00">
        <pitch>
          <step>G</step>
          <octave>3</octave>
          </pitch>
        <duration>2</duration>
        <voice>1</voice>
        <type>quarter</type>
        <stem>up</stem>
        <notehead>x</notehead>
        <lyric number="1" default-x="9.76" default-y="-49.97" relative-y="-30.00">
          <syllabic>single</syllabic>
          <text>(Huh!)</text>
          </lyric>
        </note>
      <note>
        <rest/>
        <duration>2</duration>
        <voice>1</voice>
        <type>quarter</type>
        </note>
      <barline location="right">
        <bar-style>light-light</bar-style>
        </barline>
      </measure>
    <measure number="10" width="307.76">
      <print new-system="yes">
        <system-layout>
          <system-margins>
            <left-margin>0.00</left-margin>
            <right-margin>0.00</right-margin>
            </system-margins>
          <system-distance>150.00</system-distance>
          </system-layout>
        </print>
      <harmony print-frame="no">
        <root>
          <root-step>A</root-step>
          <root-alter>-1</root-alter>
          </root>
        <kind>major</kind>
        </harmony>
      <note default-x="96.72" default-y="-15.00">
        <pitch>
          <step>C</step>
          <octave>4</octave>
          </pitch>
        <duration>4</duration>
        <voice>1</voice>
        <type>half</type>
        <stem>down</stem>
        <lyric number="1" default-x="6.50" default-y="-47.07" relative-y="-30.00">
          <syllabic>single</syllabic>
          <text>Soon</text>
          </lyric>
        </note>
      <note default-x="186.09" default-y="-15.00">
        <pitch>
          <step>C</step>
          <octave>4</octave>
          </pitch>
        <duration>3</duration>
        <voice>1</voice>
        <type>quarter</type>
        <dot/>
        <stem>down</stem>
        <lyric number="1" default-x="6.50" default-y="-47.07" relative-y="-30.00">
          <syllabic>single</syllabic>
          <text>may</text>
          </lyric>
        </note>
      <note default-x="265.34" default-y="-25.00">
        <pitch>
          <step>A</step>
          <alter>-1</alter>
          <octave>3</octave>
          </pitch>
        <duration>1</duration>
        <voice>1</voice>
        <type>eighth</type>
        <stem>up</stem>
        <lyric number="1" default-x="6.50" default-y="-47.07" relative-y="-30.00">
          <syllabic>single</syllabic>
          <text>the</text>
          </lyric>
        </note>
      </measure>
    <measure number="11" width="326.98">
      <harmony print-frame="no">
        <root>
          <root-step>E</root-step>
          <root-alter>-1</root-alter>
          </root>
        <kind>major</kind>
        </harmony>
      <note default-x="22.50" default-y="-20.00">
        <pitch>
          <step>B</step>
          <alter>-1</alter>
          <octave>3</octave>
          </pitch>
        <duration>1</duration>
        <voice>1</voice>
        <type>eighth</type>
        <stem>down</stem>
        <beam number="1">begin</beam>
        <lyric number="1" default-x="6.50" default-y="-47.07" relative-y="-30.00">
          <syllabic>begin</syllabic>
          <text>Wel</text>
          </lyric>
        </note>
      <note default-x="68.71" default-y="-20.00">
        <pitch>
          <step>B</step>
          <alter>-1</alter>
          <octave>3</octave>
          </pitch>
        <duration>1</duration>
        <voice>1</voice>
        <type>eighth</type>
        <stem>down</stem>
        <beam number="1">end</beam>
        <lyric number="1" default-x="6.50" default-y="-47.07" relative-y="-30.00">
          <syllabic>middle</syllabic>
          <text>ler</text>
          </lyric>
        </note>
      <note default-x="114.91" default-y="-30.00">
        <pitch>
          <step>G</step>
          <octave>3</octave>
          </pitch>
        <duration>2</duration>
        <voice>1</voice>
        <type>quarter</type>
        <stem>up</stem>
        <lyric number="1" default-x="6.50" default-y="-47.07" relative-y="-30.00">
          <syllabic>end</syllabic>
          <text>man</text>
          </lyric>
        </note>
      <note default-x="188.84" default-y="-30.00">
        <pitch>
          <step>G</step>
          <octave>3</octave>
          </pitch>
        <duration>3</duration>
        <voice>1</voice>
        <type>quarter</type>
        <dot/>
        <stem>up</stem>
        <lyric number="1" default-x="6.50" default-y="-47.07" relative-y="-30.00">
          <syllabic>single</syllabic>
          <text>come</text>
          </lyric>
        </note>
      <note default-x="278.98" default-y="-30.00">
        <pitch>
          <step>G</step>
          <octave>3</octave>
          </pitch>
        <duration>1</duration>
        <voice>1</voice>
        <type>eighth</type>
        <stem>up</stem>
        <lyric number="1" default-x="6.50" default-y="-47.07" relative-y="-30.00">
          <syllabic>single</syllabic>
          <text>to</text>
          </lyric>
        </note>
      </measure>
    <measure number="12" width="301.55">
      <harmony print-frame="no">
        <root>
          <root-step>F</root-step>
          </root>
        <kind text="m">minor</kind>
        </harmony>
      <note default-x="29.56" default-y="-25.00">
        <pitch>
          <step>A</step>
          <alter>-1</alter>
          <octave>3</octave>
          </pitch>
        <duration>2</duration>
        <voice>1</voice>
        <type>quarter</type>
        <stem>up</stem>
        <lyric number="1" default-x="6.50" default-y="-47.07" relative-y="-30.00">
          <syllabic>single</syllabic>
          <text>bring</text>
          </lyric>
        </note>
      <note default-x="93.13" default-y="-35.00">
        <pitch>
          <step>F</step>
          <octave>3</octave>
          </pitch>
        <duration>2</duration>
        <voice>1</voice>
        <type>quarter</type>
        <stem>up</stem>
        <lyric number="1" default-x="6.50" default-y="-47.07" relative-y="-30.00">
          <syllabic>single</syllabic>
          <text>us</text>
          </lyric>
        </note>
      <note default-x="156.71" default-y="-35.00">
        <pitch>
          <step>F</step>
          <octave>3</octave>
          </pitch>
        <duration>1</duration>
        <voice>1</voice>
        <type>eighth</type>
        <stem>up</stem>
        <beam number="1">begin</beam>
        <lyric number="1" default-x="6.50" default-y="-47.07" relative-y="-30.00">
          <syllabic>begin</syllabic>
          <text>su</text>
          </lyric>
        </note>
      <note default-x="196.44" default-y="-35.00">
        <pitch>
          <step>F</step>
          <octave>3</octave>
          </pitch>
        <duration>1</duration>
        <voice>1</voice>
        <type>eighth</type>
        <stem>up</stem>
        <beam number="1">end</beam>
        <lyric number="1" default-x="6.50" default-y="-47.07" relative-y="-30.00">
          <syllabic>end</syllabic>
          <text>gar</text>
          </lyric>
        </note>
      <note default-x="236.18" default-y="-25.00">
        <pitch>
          <step>A</step>
          <alter>-1</alter>
          <octave>3</octave>
          </pitch>
        <duration>2</duration>
        <voice>1</voice>
        <type>quarter</type>
        <stem>up</stem>
        <lyric number="1" default-x="6.50" default-y="-47.07" relative-y="-30.00">
          <syllabic>single</syllabic>
          <text>and</text>
          </lyric>
        </note>
      </measure>
    <measure number="13" width="225.38">
      <harmony print-frame="no">
        <root>
          <root-step>C</root-step>
          </root>
        <kind text="m">minor</kind>
        </harmony>
      <note default-x="19.09" default-y="-15.00">
        <pitch>
          <step>C</step>
          <octave>4</octave>
          </pitch>
        <duration>2</duration>
        <voice>1</voice>
        <type>quarter</type>
        <stem>down</stem>
        <lyric number="1" default-x="6.50" default-y="-47.07" relative-y="-30.00">
          <syllabic>single</syllabic>
          <text>tea</text>
          </lyric>
        </note>
      <note default-x="70.21" default-y="-30.00">
        <pitch>
          <step>G</step>
          <octave>3</octave>
          </pitch>
        <duration>2</duration>
        <voice>1</voice>
        <type>quarter</type>
        <stem>up</stem>
        <lyric number="1" default-x="6.50" default-y="-47.07" relative-y="-30.00">
          <syllabic>single</syllabic>
          <text>and</text>
          </lyric>
        </note>
      <note default-x="121.34" default-y="-30.00">
        <pitch>
          <step>G</step>
          <octave>3</octave>
          </pitch>
        <duration>2</duration>
        <voice>1</voice>
        <type>quarter</type>
        <stem>up</stem>
        <lyric number="1" default-x="8.48" default-y="-47.07" relative-y="-30.00">
          <syllabic>single</syllabic>
          <text>rum.</text>
          </lyric>
        </note>
      <note>
        <rest/>
        <duration>2</duration>
        <voice>1</voice>
        <type>quarter</type>
        </note>
      </measure>
    <measure number="14" width="377.61">
      <print new-system="yes">
        <system-layout>
          <system-margins>
            <left-margin>0.00</left-margin>
            <right-margin>0.00</right-margin>
            </system-margins>
          <system-distance>150.00</system-distance>
          </system-layout>
        </print>
      <direction placement="below">
        <direction-type>
          <words default-x="-3.02" default-y="-803.34" valign="top">* The melody varies from verse to verse. Chord symbols have been added by the transcriber. C. Spevak 02/21.</words>
          </direction-type>
        </direction>
      <harmony print-frame="no">
        <root>
          <root-step>A</root-step>
          <root-alter>-1</root-alter>
          </root>
        <kind>major</kind>
        </harmony>
      <note default-x="96.72" default-y="-15.00">
        <pitch>
          <step>C</step>
          <octave>4</octave>
          </pitch>
        <duration>4</duration>
        <voice>1</voice>
        <type>half</type>
        <stem>down</stem>
        <lyric number="1" default-x="6.50" default-y="-45.32" relative-y="-30.00">
          <syllabic>single</syllabic>
          <text>One</text>
          </lyric>
        </note>
      <note default-x="202.58" default-y="-15.00">
        <pitch>
          <step>C</step>
          <octave>4</octave>
          </pitch>
        <duration>2</duration>
        <voice>1</voice>
        <type>quarter</type>
        <stem>down</stem>
        <lyric number="1" default-x="9.37" default-y="-45.32" relative-y="-30.00">
          <syllabic>single</syllabic>
          <text>day,</text>
          </lyric>
        </note>
      <note default-x="279.57" default-y="-25.00">
        <pitch>
          <step>A</step>
          <alter>-1</alter>
          <octave>3</octave>
          </pitch>
        <duration>1</duration>
        <voice>1</voice>
        <type>eighth</type>
        <stem>up</stem>
        <beam number="1">begin</beam>
        <lyric number="1" default-x="6.50" default-y="-45.32" relative-y="-30.00">
          <syllabic>single</syllabic>
          <text>when</text>
          </lyric>
        </note>
      <note default-x="327.69" default-y="-25.00">
        <pitch>
          <step>A</step>
          <alter>-1</alter>
          <octave>3</octave>
          </pitch>
        <duration>1</duration>
        <voice>1</voice>
        <type>eighth</type>
        <stem>up</stem>
        <beam number="1">end</beam>
        <lyric number="1" default-x="6.50" default-y="-45.32" relative-y="-30.00">
          <syllabic>single</syllabic>
          <text>the</text>
          </lyric>
        </note>
      </measure>
    <measure number="15" width="353.93">
      <harmony print-frame="no">
        <root>
          <root-step>E</root-step>
          <root-alter>-1</root-alter>
          </root>
        <kind>major</kind>
        </harmony>
      <note default-x="19.77" default-y="-20.00">
        <pitch>
          <step>B</step>
          <alter>-1</alter>
          <octave>3</octave>
          </pitch>
        <duration>1</duration>
        <voice>1</voice>
        <type>eighth</type>
        <stem>up</stem>
        <beam number="1">begin</beam>
        <lyric number="1" default-x="6.50" default-y="-45.32" relative-y="-30.00">
          <syllabic>begin</syllabic>
          <text>ton</text>
          </lyric>
        </note>
      <note default-x="68.72" default-y="-30.00">
        <pitch>
          <step>G</step>
          <octave>3</octave>
          </pitch>
        <duration>1</duration>
        <voice>1</voice>
        <type>eighth</type>
        <stem>up</stem>
        <beam number="1">end</beam>
        <lyric number="1" default-x="6.50" default-y="-45.32" relative-y="-30.00">
          <syllabic>end</syllabic>
          <text>guing</text>
          </lyric>
        </note>
      <note default-x="117.58" default-y="-30.00">
        <pitch>
          <step>G</step>
          <octave>3</octave>
          </pitch>
        <duration>2</duration>
        <voice>1</voice>
        <type>quarter</type>
        <stem>up</stem>
        <lyric number="1" default-x="6.50" default-y="-45.32" relative-y="-30.00">
          <syllabic>single</syllabic>
          <text>is</text>
          </lyric>
        </note>
      <note default-x="195.77" default-y="-30.00">
        <pitch>
          <step>G</step>
          <octave>3</octave>
          </pitch>
        <duration>2</duration>
        <voice>1</voice>
        <type>quarter</type>
        <stem>up</stem>
        <lyric number="1" default-x="8.98" default-y="-45.32" relative-y="-30.00">
          <syllabic>single</syllabic>
          <text>done,</text>
          </lyric>
        </note>
      <note default-x="273.95" default-y="-30.00">
        <pitch>
          <step>G</step>
          <octave>3</octave>
          </pitch>
        <duration>2</duration>
        <voice>1</voice>
        <type>quarter</type>
        <stem>up</stem>
        <lyric number="1" default-x="6.50" default-y="-45.32" relative-y="-30.00">
          <syllabic>single</syllabic>
          <text>we'll</text>
          </lyric>
        </note>
      </measure>
    <measure number="16" width="302.66">
      <harmony print-frame="no">
        <root>
          <root-step>G</root-step>
          </root>
        <kind text="7">dominant</kind>
        </harmony>
      <note default-x="24.78" default-y="-30.00">
        <pitch>
          <step>G</step>
          <octave>3</octave>
          </pitch>
        <duration>2</duration>
        <voice>1</voice>
        <type>quarter</type>
        <stem>up</stem>
        <lyric number="1" default-x="6.50" default-y="-45.32" relative-y="-30.00">
          <syllabic>single</syllabic>
          <text>take</text>
          </lyric>
        </note>
      <note default-x="93.80" default-y="-35.00">
        <pitch>
          <step>F</step>
          <octave>3</octave>
          </pitch>
        <duration>2</duration>
        <voice>1</voice>
        <type>quarter</type>
        <stem>up</stem>
        <lyric number="1" default-x="6.50" default-y="-45.32" relative-y="-30.00">
          <syllabic>single</syllabic>
          <text>our</text>
          </lyric>
        </note>
      <note default-x="162.82" default-y="-40.00">
        <pitch>
          <step>E</step>
          <alter>-1</alter>
          <octave>3</octave>
          </pitch>
        <duration>2</duration>
        <voice>1</voice>
        <type>quarter</type>
        <stem>up</stem>
        <lyric number="1" default-x="6.50" default-y="-45.32" relative-y="-30.00">
          <syllabic>single</syllabic>
          <text>leave</text>
          </lyric>
        </note>
      <note default-x="231.84" default-y="-45.00">
        <pitch>
          <step>D</step>
          <octave>3</octave>
          </pitch>
        <duration>2</duration>
        <voice>1</voice>
        <type>quarter</type>
        <stem>up</stem>
        <lyric number="1" default-x="6.50" default-y="-45.32" relative-y="-30.00">
          <syllabic>single</syllabic>
          <text>and</text>
          </lyric>
        </note>
      </measure>
    <measure number="17" width="127.47">
      <harmony print-frame="no">
        <root>
          <root-step>C</root-step>
          </root>
        <kind text="m">minor</kind>
        </harmony>
      <note default-x="14.59" default-y="-50.00">
        <pitch>
          <step>C</step>
          <octave>3</octave>
          </pitch>
        <duration>4</duration>
        <voice>1</voice>
        <type>half</type>
        <stem>up</stem>
        <lyric number="1" default-x="8.95" default-y="-45.32" relative-y="-30.00">
          <syllabic>single</syllabic>
          <text>go.</text>
          </lyric>
        </note>
      <note>
        <rest/>
        <duration>2</duration>
        <voice>1</voice>
        <type>quarter</type>
        </note>
      <barline location="right">
        <bar-style>light-heavy</bar-style>
        </barline>
      </measure>
    </part>
  </score-partwise>
