<?xml version="1.0" encoding="UTF-8" standalone="no"?>
<!DOCTYPE score-partwise PUBLIC "-//Recordare//DTD MusicXML 3.1 Partwise//EN" "http://www.musicxml.org/dtds/partwise.dtd">
<score-partwise version="3.1">
  <movement-title>RVW2/2/37 The Jolly Harrin' (Herrings)</movement-title>
  <identification>
    <creator type="composer">Ted Nevill, Little Bursted, Essex, 16 Apr 1904.</creator>
    <encoding>
      <software>Finale v26 for Windows</software>
      <encoding-date>2019-04-06</encoding-date>
      <supports attribute="new-system" element="print" type="yes" value="yes"/>
      <supports attribute="new-page" element="print" type="yes" value="yes"/>
      <supports element="accidental" type="yes"/>
      <supports element="beam" type="yes"/>
      <supports element="stem" type="yes"/>
    </encoding>
  </identification>
  <defaults>
    <scaling>
      <millimeters>7.0273</millimeters>
      <tenths>40</tenths>
    </scaling>
    <page-layout>
      <page-height>1691</page-height>
      <page-width>1195</page-width>
      <page-margins type="even">
        <left-margin>57</left-margin>
        <right-margin>57</right-margin>
        <top-margin>57</top-margin>
        <bottom-margin>114</bottom-margin>
      </page-margins>
      <page-margins type="odd">
        <left-margin>57</left-margin>
        <right-margin>57</right-margin>
        <top-margin>57</top-margin>
        <bottom-margin>114</bottom-margin>
      </page-margins>
    </page-layout>
    <system-layout>
      <system-margins>
        <left-margin>0</left-margin>
        <right-margin>0</right-margin>
      </system-margins>
      <system-distance>115</system-distance>
      <top-system-distance>28</top-system-distance>
    </system-layout>
    <appearance>
      <line-width type="stem">0.7487</line-width>
      <line-width type="beam">5</line-width>
      <line-width type="staff">0.7487</line-width>
      <line-width type="light barline">0.7487</line-width>
      <line-width type="heavy barline">5</line-width>
      <line-width type="leger">0.7487</line-width>
      <line-width type="ending">0.7487</line-width>
      <line-width type="wedge">0.7487</line-width>
      <line-width type="enclosure">0.7487</line-width>
      <line-width type="tuplet bracket">0.7487</line-width>
      <note-size type="grace">60</note-size>
      <note-size type="cue">60</note-size>
      <distance type="hyphen">120</distance>
      <distance type="beam">8</distance>
    </appearance>
    <music-font font-family="Maestro,engraved" font-size="19.9"/>
    <word-font font-family="Times New Roman" font-size="11.6"/>
    <lyric-font font-family="Times New Roman" font-size="10.8"/>
  </defaults>
  <credit page="1">
    <credit-words default-x="611" default-y="1626" font-size="24" justify="center" valign="top">RVW2/2/37 The Jolly Harrin' (Herring)</credit-words>
  </credit>
  <credit page="1">
    <credit-words default-x="1139" default-y="1484" font-size="12" justify="right" valign="bottom">Ted Nevill, Little Bursted, Essex, 16 April 1904.</credit-words>
  </credit>
  <credit page="1">
    <credit-words default-x="58" default-y="1430" font-family="FreeSerif" font-size="12" font-style="italic" valign="bottom" xml:space="preserve">Note: The important words of each verse
 ("head," "eyes," etc.) are spoken.</credit-words>
    <credit-words font-family="FreeSerif" font-size="12" font-style="normal" xml:space="preserve"> 
</credit-words>
  </credit>
  <part-list>
    <score-part id="P1">
      <part-name print-object="no">MusicXML Part</part-name>
      <score-instrument id="P1-I1">
        <instrument-name>Piano</instrument-name>
      </score-instrument>
      <midi-instrument id="P1-I1">
        <midi-channel>1</midi-channel>
        <midi-program>1</midi-program>
        <volume>79</volume>
        <pan>0</pan>
      </midi-instrument>
    </score-part>
  </part-list>
  <!--=========================================================-->
  <part id="P1">
    <measure implicit="yes" number="0" width="158">
      <print>
        <system-layout>
          <system-margins>
            <left-margin>2</left-margin>
            <right-margin>0</right-margin>
          </system-margins>
          <top-system-distance>288</top-system-distance>
        </system-layout>
        <measure-numbering>system</measure-numbering>
      </print>
      <attributes>
        <divisions>4</divisions>
        <key>
          <fifths>1</fifths>
          <mode>major</mode>
        </key>
        <time>
          <beats>6</beats>
          <beat-type>8</beat-type>
        </time>
        <clef>
          <sign>G</sign>
          <line>2</line>
        </clef>
      </attributes>
      <direction placement="above">
        <direction-type>
          <words default-y="48" font-family="FreeSerif" font-size="10" font-style="italic" relative-x="-109">Verse 1</words>
        </direction-type>
      </direction>
      <direction directive="yes" placement="above">
        <direction-type>
          <words default-y="20" font-weight="bold" xml:space="preserve">(Editorial suggestion)  </words>
        </direction-type>
        <direction-type>
          <metronome font-family="EngraverTextT" font-size="10" font-weight="normal">
            <beat-unit>quarter</beat-unit>
            <beat-unit-dot/>
            <per-minute>80</per-minute>
          </metronome>
        </direction-type>
        <sound tempo="120"/>
      </direction>
      <note default-x="108">
        <pitch>
          <step>D</step>
          <octave>5</octave>
        </pitch>
        <duration>2</duration>
        <voice>1</voice>
        <type>eighth</type>
        <stem default-y="-45">down</stem>
        <lyric default-y="-81" number="1" relative-x="7">
          <syllabic>single</syllabic>
          <text>As</text>
        </lyric>
      </note>
    </measure>
    <!--=======================================================-->
    <measure number="1" width="249">
      <note default-x="13">
        <pitch>
          <step>G</step>
          <octave>4</octave>
        </pitch>
        <duration>2</duration>
        <voice>1</voice>
        <type>eighth</type>
        <stem default-y="5">up</stem>
        <beam number="1">begin</beam>
        <lyric default-y="-81" number="1" relative-x="7">
          <syllabic>single</syllabic>
          <text>I</text>
        </lyric>
      </note>
      <note default-x="55">
        <pitch>
          <step>G</step>
          <octave>4</octave>
        </pitch>
        <duration>2</duration>
        <voice>1</voice>
        <type>eighth</type>
        <stem default-y="5">up</stem>
        <beam number="1">continue</beam>
        <lyric default-y="-81" number="1" relative-x="7">
          <syllabic>single</syllabic>
          <text>was</text>
        </lyric>
      </note>
      <note default-x="97">
        <pitch>
          <step>G</step>
          <octave>4</octave>
        </pitch>
        <duration>2</duration>
        <voice>1</voice>
        <type>eighth</type>
        <stem default-y="5">up</stem>
        <beam number="1">end</beam>
        <lyric default-y="-81" number="1" relative-x="7">
          <syllabic>begin</syllabic>
          <text>a</text>
        </lyric>
      </note>
      <note default-x="139">
        <pitch>
          <step>G</step>
          <octave>4</octave>
        </pitch>
        <duration>4</duration>
        <voice>1</voice>
        <type>quarter</type>
        <stem default-y="5">up</stem>
        <lyric default-y="-81" number="1" relative-x="7">
          <syllabic>middle</syllabic>
          <text>walk</text>
        </lyric>
      </note>
      <note default-x="207">
        <pitch>
          <step>B</step>
          <octave>4</octave>
        </pitch>
        <duration>2</duration>
        <voice>1</voice>
        <type>eighth</type>
        <stem default-y="-55">down</stem>
        <lyric default-y="-81" number="1" relative-x="7">
          <syllabic>end</syllabic>
          <text>ing</text>
        </lyric>
      </note>
    </measure>
    <!--=======================================================-->
    <measure number="2" width="303">
      <note default-x="14">
        <pitch>
          <step>D</step>
          <octave>5</octave>
        </pitch>
        <duration>2</duration>
        <voice>1</voice>
        <type>eighth</type>
        <stem default-y="-45">down</stem>
        <beam number="1">begin</beam>
        <lyric default-y="-81" number="1" relative-x="7">
          <syllabic>single</syllabic>
          <text>out</text>
        </lyric>
      </note>
      <note default-x="65">
        <pitch>
          <step>D</step>
          <octave>5</octave>
        </pitch>
        <duration>2</duration>
        <voice>1</voice>
        <type>eighth</type>
        <stem default-y="-45">down</stem>
        <beam number="1">continue</beam>
        <lyric default-y="-81" number="1" relative-x="7">
          <syllabic>single</syllabic>
          <text>one</text>
        </lyric>
      </note>
      <note default-x="117">
        <pitch>
          <step>D</step>
          <octave>5</octave>
        </pitch>
        <duration>2</duration>
        <voice>1</voice>
        <type>eighth</type>
        <stem default-y="-45">down</stem>
        <beam number="1">end</beam>
        <lyric default-y="-81" number="1" relative-x="7">
          <syllabic>single</syllabic>
          <text>May</text>
        </lyric>
      </note>
      <note default-x="169">
        <pitch>
          <step>B</step>
          <octave>4</octave>
        </pitch>
        <duration>4</duration>
        <voice>1</voice>
        <type>quarter</type>
        <stem default-y="-55">down</stem>
        <lyric default-y="-81" number="1" relative-x="7">
          <syllabic>begin</syllabic>
          <text>morn</text>
        </lyric>
      </note>
      <note default-x="251">
        <pitch>
          <step>A</step>
          <octave>4</octave>
        </pitch>
        <duration>2</duration>
        <voice>1</voice>
        <type>eighth</type>
        <stem default-y="10">up</stem>
        <lyric default-y="-81" number="1" relative-x="7">
          <syllabic>end</syllabic>
          <text>ing</text>
        </lyric>
      </note>
    </measure>
    <!--=======================================================-->
    <measure number="3" width="254">
      <note default-x="14">
        <pitch>
          <step>G</step>
          <octave>4</octave>
        </pitch>
        <duration>2</duration>
        <voice>1</voice>
        <type>eighth</type>
        <stem default-y="5">up</stem>
        <beam number="1">begin</beam>
        <lyric default-y="-81" number="1" relative-x="7">
          <syllabic>single</syllabic>
          <text>down</text>
        </lyric>
      </note>
      <note default-x="58">
        <pitch>
          <step>G</step>
          <octave>4</octave>
        </pitch>
        <duration>2</duration>
        <voice>1</voice>
        <type>eighth</type>
        <stem default-y="5">up</stem>
        <beam number="1">continue</beam>
        <lyric default-y="-81" number="1" relative-x="7">
          <syllabic>single</syllabic>
          <text>by</text>
        </lyric>
      </note>
      <note default-x="101">
        <pitch>
          <step>G</step>
          <octave>4</octave>
        </pitch>
        <duration>2</duration>
        <voice>1</voice>
        <type>eighth</type>
        <stem default-y="5">up</stem>
        <beam number="1">end</beam>
        <lyric default-y="-81" number="1" relative-x="7">
          <syllabic>single</syllabic>
          <text>the</text>
        </lyric>
      </note>
      <note default-x="144">
        <pitch>
          <step>A</step>
          <octave>4</octave>
        </pitch>
        <duration>4</duration>
        <voice>1</voice>
        <type>quarter</type>
        <stem default-y="10">up</stem>
        <lyric default-y="-81" number="1" relative-x="7">
          <syllabic>begin</syllabic>
          <text>ri</text>
        </lyric>
      </note>
      <note default-x="209">
        <pitch>
          <step>G</step>
          <octave>4</octave>
        </pitch>
        <duration>2</duration>
        <voice>1</voice>
        <type>eighth</type>
        <stem default-y="5">up</stem>
        <lyric default-y="-81" number="1" relative-x="7">
          <syllabic>middle</syllabic>
          <text>ver</text>
        </lyric>
      </note>
    </measure>
    <!--=======================================================-->
    <measure number="4" width="116">
      <note default-x="13">
        <pitch>
          <step>A</step>
          <octave>4</octave>
        </pitch>
        <duration>12</duration>
        <voice>1</voice>
        <type>half</type>
        <dot/>
        <stem default-y="10">up</stem>
        <lyric default-y="-81" number="1" relative-x="6">
          <syllabic>end</syllabic>
          <text>side</text>
        </lyric>
      </note>
    </measure>
    <!--=======================================================-->
    <measure number="5" width="226">
      <print new-system="yes">
        <system-layout>
          <system-distance>93</system-distance>
        </system-layout>
      </print>
      <note default-x="77">
        <pitch>
          <step>B</step>
          <octave>4</octave>
        </pitch>
        <duration>4</duration>
        <voice>1</voice>
        <type>quarter</type>
        <stem default-y="-55">down</stem>
        <lyric default-y="-81" number="1" relative-x="7">
          <syllabic>single</syllabic>
          <text>There</text>
        </lyric>
      </note>
      <note default-x="119">
        <pitch>
          <step>B</step>
          <octave>4</octave>
        </pitch>
        <duration>2</duration>
        <voice>1</voice>
        <type>eighth</type>
        <stem default-y="-55">down</stem>
        <lyric default-y="-81" number="1" relative-x="7">
          <syllabic>single</syllabic>
          <text>I</text>
        </lyric>
      </note>
      <note default-x="154">
        <pitch>
          <step>B</step>
          <octave>4</octave>
        </pitch>
        <duration>4</duration>
        <voice>1</voice>
        <type>quarter</type>
        <stem default-y="-55">down</stem>
        <lyric default-y="-81" number="1" relative-x="7">
          <syllabic>single</syllabic>
          <text>spied</text>
        </lyric>
      </note>
      <note default-x="195">
        <pitch>
          <step>B</step>
          <octave>4</octave>
        </pitch>
        <duration>2</duration>
        <voice>1</voice>
        <type>eighth</type>
        <stem default-y="-55">down</stem>
        <lyric default-y="-81" number="1" relative-x="7">
          <syllabic>single</syllabic>
          <text>a</text>
        </lyric>
      </note>
    </measure>
    <!--=======================================================-->
    <measure number="6" width="218">
      <note default-x="13">
        <pitch>
          <step>B</step>
          <octave>4</octave>
        </pitch>
        <duration>2</duration>
        <voice>1</voice>
        <type>eighth</type>
        <stem default-y="-55">down</stem>
        <beam number="1">begin</beam>
        <lyric default-y="-81" number="1" relative-x="7">
          <syllabic>begin</syllabic>
          <text>jol</text>
        </lyric>
      </note>
      <note default-x="45">
        <pitch>
          <step>C</step>
          <octave>5</octave>
        </pitch>
        <duration>2</duration>
        <voice>1</voice>
        <type>eighth</type>
        <stem default-y="-52">down</stem>
        <beam number="1">continue</beam>
        <lyric default-y="-81" number="1" relative-x="7">
          <syllabic>end</syllabic>
          <text>ly</text>
        </lyric>
      </note>
      <note default-x="81">
        <pitch>
          <step>D</step>
          <octave>5</octave>
        </pitch>
        <duration>2</duration>
        <voice>1</voice>
        <type>eighth</type>
        <stem default-y="-50">down</stem>
        <beam number="1">end</beam>
        <lyric default-y="-81" number="1" relative-x="7">
          <syllabic>begin</syllabic>
          <text>har</text>
        </lyric>
      </note>
      <note default-x="118">
        <pitch>
          <step>E</step>
          <octave>5</octave>
        </pitch>
        <duration>4</duration>
        <voice>1</voice>
        <type>quarter</type>
        <stem default-y="-40">down</stem>
        <lyric default-y="-81" number="1" relative-x="8">
          <syllabic>end</syllabic>
          <text>rin'</text>
        </lyric>
      </note>
      <note default-x="171">
        <pitch>
          <step>E</step>
          <octave>5</octave>
        </pitch>
        <duration>2</duration>
        <voice>1</voice>
        <type>eighth</type>
        <stem default-y="-40">down</stem>
        <lyric default-y="-81" number="1" relative-x="7">
          <syllabic>single</syllabic>
          <text>come</text>
        </lyric>
      </note>
    </measure>
    <!--=======================================================-->
    <measure number="7" width="231">
      <note default-x="13">
        <pitch>
          <step>D</step>
          <octave>5</octave>
        </pitch>
        <duration>4</duration>
        <voice>1</voice>
        <type>quarter</type>
        <stem default-y="-45">down</stem>
        <lyric default-y="-81" number="1" relative-x="7">
          <syllabic>begin</syllabic>
          <text>row</text>
        </lyric>
      </note>
      <note default-x="62">
        <pitch>
          <step>D</step>
          <octave>5</octave>
        </pitch>
        <duration>2</duration>
        <voice>1</voice>
        <type>eighth</type>
        <stem default-y="-45">down</stem>
        <lyric default-y="-81" number="1" relative-x="7">
          <syllabic>end</syllabic>
          <text>ing</text>
        </lyric>
      </note>
      <note default-x="109">
        <pitch>
          <step>G</step>
          <octave>4</octave>
        </pitch>
        <duration>2</duration>
        <voice>1</voice>
        <type>eighth</type>
        <stem default-y="15">up</stem>
        <beam number="1">begin</beam>
        <lyric default-y="-81" number="1" relative-x="7">
          <syllabic>single</syllabic>
          <text>down</text>
        </lyric>
      </note>
      <note default-x="154">
        <pitch>
          <step>B</step>
          <octave>4</octave>
        </pitch>
        <duration>2</duration>
        <voice>1</voice>
        <type>eighth</type>
        <stem default-y="15">up</stem>
        <beam number="1">continue</beam>
        <lyric default-y="-81" number="1" relative-x="7">
          <syllabic>single</syllabic>
          <text>by</text>
        </lyric>
      </note>
      <note default-x="192">
        <pitch>
          <step>A</step>
          <octave>4</octave>
        </pitch>
        <duration>2</duration>
        <voice>1</voice>
        <type>eighth</type>
        <stem default-y="15">up</stem>
        <beam number="1">end</beam>
        <lyric default-y="-81" number="1" relative-x="7">
          <syllabic>single</syllabic>
          <text>the</text>
        </lyric>
      </note>
    </measure>
    <!--=======================================================-->
    <measure number="8" width="182">
      <note default-x="13">
        <pitch>
          <step>G</step>
          <octave>4</octave>
        </pitch>
        <duration>6</duration>
        <tie type="start"/>
        <voice>1</voice>
        <type>quarter</type>
        <dot/>
        <stem default-y="5">up</stem>
        <notations>
          <tied type="start"/>
        </notations>
        <lyric default-y="-81" number="1" relative-x="7">
          <syllabic>single</syllabic>
          <text>tide</text>
        </lyric>
      </note>
      <note default-x="68">
        <pitch>
          <step>G</step>
          <octave>4</octave>
        </pitch>
        <duration>2</duration>
        <tie type="stop"/>
        <voice>1</voice>
        <type>eighth</type>
        <stem default-y="5">up</stem>
        <notations>
          <tied type="stop"/>
        </notations>
      </note>
      <note default-x="98">
        <pitch>
          <step>B</step>
          <octave>4</octave>
        </pitch>
        <duration>2</duration>
        <voice>1</voice>
        <type>eighth</type>
        <stem default-y="-55">down</stem>
        <lyric default-y="-81" number="1" relative-x="7">
          <syllabic>single</syllabic>
          <text>that</text>
        </lyric>
      </note>
      <note default-x="141">
        <pitch>
          <step>C</step>
          <octave>5</octave>
        </pitch>
        <duration>2</duration>
        <voice>1</voice>
        <type>eighth</type>
        <stem default-y="-50">down</stem>
        <lyric default-y="-81" number="1" relative-x="7">
          <syllabic>single</syllabic>
          <text>was</text>
        </lyric>
      </note>
    </measure>
    <!--=======================================================-->
    <measure number="9" width="225">
      <note default-x="14">
        <pitch>
          <step>D</step>
          <octave>5</octave>
        </pitch>
        <duration>2</duration>
        <voice>1</voice>
        <type>eighth</type>
        <stem default-y="-45">down</stem>
        <beam number="1">begin</beam>
        <lyric default-y="-81" number="1" relative-x="7">
          <syllabic>begin</syllabic>
          <text>for</text>
        </lyric>
      </note>
      <note default-x="48">
        <pitch>
          <step>D</step>
          <octave>5</octave>
        </pitch>
        <duration>2</duration>
        <voice>1</voice>
        <type>eighth</type>
        <stem default-y="-45">down</stem>
        <beam number="1">continue</beam>
        <lyric default-y="-81" number="1" relative-x="7">
          <syllabic>end</syllabic>
          <text>ty</text>
        </lyric>
      </note>
      <note default-x="84">
        <pitch>
          <step>D</step>
          <octave>5</octave>
        </pitch>
        <duration>2</duration>
        <voice>1</voice>
        <type>eighth</type>
        <stem default-y="-45">down</stem>
        <beam number="1">end</beam>
        <lyric default-y="-81" number="1" relative-x="7">
          <syllabic>single</syllabic>
          <text>feet</text>
        </lyric>
      </note>
      <note default-x="132">
        <pitch>
          <step>D</step>
          <octave>5</octave>
        </pitch>
        <duration>4</duration>
        <voice>1</voice>
        <type>quarter</type>
        <stem default-y="-45">down</stem>
        <lyric default-y="-81" number="1" relative-x="7">
          <syllabic>single</syllabic>
          <text>wide</text>
        </lyric>
      </note>
      <note default-x="183">
        <pitch>
          <step>D</step>
          <octave>5</octave>
        </pitch>
        <duration>2</duration>
        <voice>1</voice>
        <type>eighth</type>
        <stem default-y="-45">down</stem>
        <lyric default-y="-81" number="1" relative-x="7">
          <syllabic>single</syllabic>
          <text>and</text>
        </lyric>
      </note>
    </measure>
    <!--=======================================================-->
    <measure number="10" width="332">
      <print new-system="yes">
        <system-layout>
          <system-distance>95</system-distance>
        </system-layout>
      </print>
      <note default-x="77">
        <pitch>
          <step>B</step>
          <octave>4</octave>
        </pitch>
        <duration>2</duration>
        <voice>1</voice>
        <type>eighth</type>
        <stem default-y="-55">down</stem>
        <beam number="1">begin</beam>
        <lyric default-y="-81" number="1" relative-x="7">
          <syllabic>begin</syllabic>
          <text>fif</text>
        </lyric>
      </note>
      <note default-x="127">
        <pitch>
          <step>C</step>
          <octave>5</octave>
        </pitch>
        <duration>2</duration>
        <voice>1</voice>
        <type>eighth</type>
        <stem default-y="-52">down</stem>
        <beam number="1">continue</beam>
        <lyric default-y="-81" number="1" relative-x="7">
          <syllabic>end</syllabic>
          <text>ty</text>
        </lyric>
      </note>
      <note default-x="177">
        <pitch>
          <step>E</step>
          <octave>5</octave>
        </pitch>
        <duration>2</duration>
        <voice>1</voice>
        <type>eighth</type>
        <stem default-y="-50">down</stem>
        <beam number="1">end</beam>
        <lyric default-y="-81" number="1" relative-x="7">
          <syllabic>single</syllabic>
          <text>feet</text>
        </lyric>
      </note>
      <note default-x="226">
        <pitch>
          <step>D</step>
          <octave>5</octave>
        </pitch>
        <duration>6</duration>
        <voice>1</voice>
        <type>quarter</type>
        <dot/>
        <stem default-y="-45">down</stem>
        <lyric default-y="-81" number="1" relative-x="8">
          <syllabic>single</syllabic>
          <text>long.</text>
        </lyric>
      </note>
    </measure>
    <!--=======================================================-->
    <measure number="11" width="317">
      <note default-x="14">
        <pitch>
          <step>G</step>
          <octave>4</octave>
        </pitch>
        <duration>4</duration>
        <voice>1</voice>
        <type>quarter</type>
        <stem default-y="5">up</stem>
        <lyric default-y="-81" number="1" relative-x="7">
          <syllabic>single</syllabic>
          <text>Don't</text>
        </lyric>
      </note>
      <note default-x="107">
        <pitch>
          <step>A</step>
          <octave>4</octave>
        </pitch>
        <duration>2</duration>
        <voice>1</voice>
        <type>eighth</type>
        <stem default-y="10">up</stem>
        <lyric default-y="-81" number="1" relative-x="7">
          <syllabic>single</syllabic>
          <text>you</text>
        </lyric>
      </note>
      <note default-x="165">
        <pitch>
          <step>B</step>
          <octave>4</octave>
        </pitch>
        <duration>4</duration>
        <voice>1</voice>
        <type>quarter</type>
        <stem default-y="-55">down</stem>
        <lyric default-y="-81" number="1" relative-x="7">
          <syllabic>single</syllabic>
          <text>think</text>
        </lyric>
      </note>
      <note default-x="258">
        <pitch>
          <step>B</step>
          <octave>4</octave>
        </pitch>
        <duration>2</duration>
        <voice>1</voice>
        <type>eighth</type>
        <stem default-y="-55">down</stem>
        <lyric default-y="-81" number="1" relative-x="7">
          <syllabic>single</syllabic>
          <text>that</text>
        </lyric>
      </note>
    </measure>
    <!--=======================================================-->
    <measure number="12" width="276">
      <note default-x="14">
        <pitch>
          <step>D</step>
          <octave>5</octave>
        </pitch>
        <duration>4</duration>
        <voice>1</voice>
        <type>quarter</type>
        <stem default-y="-45">down</stem>
        <lyric default-y="-81" number="1" relative-x="7">
          <syllabic>single</syllabic>
          <text>was</text>
        </lyric>
      </note>
      <note default-x="89">
        <pitch>
          <step>G</step>
          <octave>4</octave>
        </pitch>
        <duration>2</duration>
        <voice>1</voice>
        <type>eighth</type>
        <stem default-y="5">up</stem>
        <lyric default-y="-81" number="1" relative-x="7">
          <syllabic>single</syllabic>
          <text>a</text>
        </lyric>
      </note>
      <note default-x="136">
        <pitch>
          <step>A</step>
          <octave>4</octave>
        </pitch>
        <duration>2</duration>
        <voice>1</voice>
        <type>eighth</type>
        <stem default-y="10">up</stem>
        <beam number="1">begin</beam>
        <lyric default-y="-81" number="1" relative-x="7">
          <syllabic>begin</syllabic>
          <text>jol</text>
        </lyric>
      </note>
      <note default-x="182">
        <pitch>
          <step>G</step>
          <octave>4</octave>
        </pitch>
        <duration>2</duration>
        <voice>1</voice>
        <type>eighth</type>
        <stem default-y="7.5">up</stem>
        <beam number="1">continue</beam>
        <lyric default-y="-81" number="1" relative-x="7">
          <syllabic>end</syllabic>
          <text>ly</text>
        </lyric>
      </note>
      <note default-x="229">
        <pitch>
          <step>F</step>
          <alter>1</alter>
          <octave>4</octave>
        </pitch>
        <duration>2</duration>
        <voice>1</voice>
        <type>eighth</type>
        <stem default-y="5">up</stem>
        <beam number="1">end</beam>
        <lyric default-y="-81" number="1" relative-x="7">
          <syllabic>begin</syllabic>
          <text>har</text>
        </lyric>
      </note>
    </measure>
    <!--=======================================================-->
    <measure number="13" width="157">
      <note default-x="13">
        <pitch>
          <step>G</step>
          <octave>4</octave>
        </pitch>
        <duration>6</duration>
        <voice>1</voice>
        <type>quarter</type>
        <dot/>
        <stem default-y="5">up</stem>
        <lyric default-y="-81" number="1" relative-x="13">
          <syllabic>end</syllabic>
          <text>rin'?</text>
        </lyric>
      </note>
      <note default-x="92">
        <rest/>
        <duration>4</duration>
        <voice>1</voice>
        <type>quarter</type>
      </note>
      <barline location="right">
        <bar-style>light-light</bar-style>
      </barline>
    </measure>
    <!--=======================================================-->
    <measure number="14" width="114">
      <print new-system="yes">
        <system-layout>
          <system-distance>116</system-distance>
        </system-layout>
      </print>
      <direction placement="above">
        <direction-type>
          <words default-y="38" font-family="FreeSerif" font-size="10" font-style="italic" relative-x="-78">Verse 2.</words>
        </direction-type>
      </direction>
      <note default-x="77">
        <pitch>
          <step>D</step>
          <octave>5</octave>
        </pitch>
        <duration>2</duration>
        <voice>1</voice>
        <type>eighth</type>
        <stem default-y="-45">down</stem>
        <lyric default-y="-81" number="1" relative-x="7">
          <syllabic>single</syllabic>
          <text>O</text>
        </lyric>
      </note>
    </measure>
    <!--=======================================================-->
    <measure number="15" width="228">
      <note default-x="13">
        <pitch>
          <step>D</step>
          <octave>5</octave>
        </pitch>
        <duration>2</duration>
        <voice>1</voice>
        <type>eighth</type>
        <stem default-y="-45">down</stem>
        <beam number="1">begin</beam>
        <lyric default-y="-81" number="1" relative-x="7">
          <syllabic>single</syllabic>
          <text>what</text>
        </lyric>
      </note>
      <note default-x="57">
        <pitch>
          <step>D</step>
          <octave>5</octave>
        </pitch>
        <duration>2</duration>
        <voice>1</voice>
        <type>eighth</type>
        <stem default-y="-45">down</stem>
        <beam number="1">continue</beam>
        <lyric default-y="-81" number="1" relative-x="7">
          <syllabic>single</syllabic>
          <text>do</text>
        </lyric>
      </note>
      <note default-x="97">
        <pitch>
          <step>D</step>
          <octave>5</octave>
        </pitch>
        <duration>2</duration>
        <voice>1</voice>
        <type>eighth</type>
        <stem default-y="-45">down</stem>
        <beam number="1">end</beam>
        <lyric default-y="-81" number="1" relative-x="7">
          <syllabic>single</syllabic>
          <text>you</text>
        </lyric>
      </note>
      <note default-x="145">
        <pitch>
          <step>D</step>
          <octave>5</octave>
        </pitch>
        <duration>4</duration>
        <voice>1</voice>
        <type>quarter</type>
        <stem default-y="-45">down</stem>
        <lyric default-y="-81" number="1" relative-x="7">
          <syllabic>single</syllabic>
          <text>think</text>
        </lyric>
      </note>
      <note default-x="193">
        <pitch>
          <step>D</step>
          <octave>5</octave>
        </pitch>
        <duration>2</duration>
        <voice>1</voice>
        <type>eighth</type>
        <stem default-y="-45">down</stem>
        <lyric default-y="-81" number="1" relative-x="7">
          <syllabic>single</syllabic>
          <text>I</text>
        </lyric>
      </note>
    </measure>
    <!--=======================================================-->
    <measure number="16" width="228">
      <note default-x="13">
        <pitch>
          <step>B</step>
          <octave>4</octave>
        </pitch>
        <duration>2</duration>
        <voice>1</voice>
        <type>eighth</type>
        <stem default-y="-55">down</stem>
        <beam number="1">begin</beam>
        <lyric default-y="-81" number="1" relative-x="7">
          <syllabic>single</syllabic>
          <text>made</text>
        </lyric>
      </note>
      <note default-x="66">
        <pitch>
          <step>D</step>
          <octave>5</octave>
        </pitch>
        <duration>2</duration>
        <voice>1</voice>
        <type>eighth</type>
        <stem default-y="-52">down</stem>
        <beam number="1">continue</beam>
        <lyric default-y="-81" number="1" relative-x="7">
          <syllabic>single</syllabic>
          <text>with</text>
        </lyric>
      </note>
      <note default-x="110">
        <pitch>
          <step>E</step>
          <octave>5</octave>
        </pitch>
        <duration>2</duration>
        <voice>1</voice>
        <type>eighth</type>
        <stem default-y="-50">down</stem>
        <beam number="1">end</beam>
        <lyric default-y="-81" number="1" relative-x="7">
          <syllabic>single</syllabic>
          <text>his</text>
        </lyric>
      </note>
      <note default-x="153">
        <pitch>
          <step>D</step>
          <octave>5</octave>
        </pitch>
        <duration>6</duration>
        <voice>1</voice>
        <type>quarter</type>
        <dot/>
        <stem default-y="-45">down</stem>
        <lyric default-y="-81" number="1" relative-x="11">
          <syllabic>single</syllabic>
          <text>head?</text>
        </lyric>
      </note>
    </measure>
    <!--=======================================================-->
    <measure number="17" width="223">
      <note default-x="13">
        <pitch>
          <step>D</step>
          <octave>5</octave>
        </pitch>
        <duration>4</duration>
        <voice>1</voice>
        <type>quarter</type>
        <stem default-y="-45">down</stem>
        <lyric default-y="-81" number="1" relative-x="7">
          <syllabic>single</syllabic>
          <text>There</text>
        </lyric>
      </note>
      <note default-x="74">
        <pitch>
          <step>D</step>
          <octave>5</octave>
        </pitch>
        <duration>2</duration>
        <voice>1</voice>
        <type>eighth</type>
        <stem default-y="-45">down</stem>
        <lyric default-y="-81" number="1" relative-x="7">
          <syllabic>single</syllabic>
          <text>was</text>
        </lyric>
      </note>
      <note default-x="110">
        <pitch>
          <step>D</step>
          <octave>5</octave>
        </pitch>
        <duration>2</duration>
        <voice>1</voice>
        <type>eighth</type>
        <stem default-y="-45">down</stem>
        <beam number="1">begin</beam>
        <lyric default-y="-81" number="1" relative-x="7">
          <syllabic>begin</syllabic>
          <text>o</text>
        </lyric>
      </note>
      <note default-x="148">
        <pitch>
          <step>D</step>
          <octave>5</octave>
        </pitch>
        <duration>2</duration>
        <voice>1</voice>
        <type>eighth</type>
        <stem default-y="-45">down</stem>
        <beam number="1">continue</beam>
        <lyric default-y="-81" number="1" relative-x="7">
          <syllabic>end</syllabic>
          <text>ver</text>
        </lyric>
      </note>
      <note default-x="185">
        <pitch>
          <step>D</step>
          <octave>5</octave>
        </pitch>
        <duration>2</duration>
        <voice>1</voice>
        <type>eighth</type>
        <stem default-y="-45">down</stem>
        <beam number="1">end</beam>
        <lyric default-y="-81" number="1" relative-x="7">
          <syllabic>single</syllabic>
          <text>ten</text>
        </lyric>
      </note>
    </measure>
    <!--=======================================================-->
    <measure number="18" width="289">
      <note default-x="14">
        <pitch>
          <step>B</step>
          <octave>4</octave>
        </pitch>
        <duration>2</duration>
        <voice>1</voice>
        <type>eighth</type>
        <stem default-y="-55">down</stem>
        <beam number="1">begin</beam>
        <notations>
          <slur number="1" placement="above" type="start"/>
        </notations>
        <lyric default-y="-81" number="1" relative-x="7">
          <syllabic>single</syllabic>
          <text>loaves</text>
        </lyric>
      </note>
      <note default-x="49">
        <pitch>
          <step>D</step>
          <octave>5</octave>
        </pitch>
        <duration>2</duration>
        <voice>1</voice>
        <type>eighth</type>
        <stem default-y="-52">down</stem>
        <beam number="1">continue</beam>
        <notations>
          <slur number="1" type="stop"/>
        </notations>
      </note>
      <note default-x="80">
        <pitch>
          <step>E</step>
          <octave>5</octave>
        </pitch>
        <duration>2</duration>
        <voice>1</voice>
        <type>eighth</type>
        <stem default-y="-50">down</stem>
        <beam number="1">end</beam>
        <lyric default-y="-81" number="1" relative-x="7">
          <syllabic>single</syllabic>
          <text>of</text>
        </lyric>
      </note>
      <note default-x="129">
        <pitch>
          <step>D</step>
          <octave>5</octave>
        </pitch>
        <duration>4</duration>
        <voice>1</voice>
        <type>quarter</type>
        <stem default-y="-45">down</stem>
        <lyric default-y="-81" number="1" relative-x="8">
          <syllabic>single</syllabic>
          <text>bread,</text>
        </lyric>
      </note>
      <note default-x="200">
        <pitch>
          <step>D</step>
          <octave>5</octave>
        </pitch>
        <duration>1</duration>
        <voice>1</voice>
        <type>16th</type>
        <stem default-y="-45">down</stem>
        <beam number="1">begin</beam>
        <beam number="2">begin</beam>
        <lyric default-y="-81" number="1" relative-x="7">
          <syllabic>single</syllabic>
          <text>there</text>
        </lyric>
      </note>
      <note default-x="248">
        <pitch>
          <step>D</step>
          <octave>5</octave>
        </pitch>
        <duration>1</duration>
        <voice>1</voice>
        <type>16th</type>
        <stem default-y="-45">down</stem>
        <beam number="1">end</beam>
        <beam number="2">end</beam>
        <lyric default-y="-81" number="1" relative-x="7">
          <syllabic>single</syllabic>
          <text>was</text>
        </lyric>
      </note>
    </measure>
    <!--=======================================================-->
    <measure number="19" width="317">
      <print new-system="yes">
        <system-layout>
          <system-distance>96</system-distance>
        </system-layout>
      </print>
      <note default-x="77">
        <pitch>
          <step>D</step>
          <octave>5</octave>
        </pitch>
        <duration>2</duration>
        <voice>1</voice>
        <type>eighth</type>
        <stem default-y="-45">down</stem>
        <beam number="1">begin</beam>
        <lyric default-y="-81" number="1" relative-x="7">
          <syllabic>single</syllabic>
          <text>ten</text>
        </lyric>
      </note>
      <note default-x="128">
        <pitch>
          <step>D</step>
          <octave>5</octave>
        </pitch>
        <duration>2</duration>
        <voice>1</voice>
        <type>eighth</type>
        <stem default-y="-45">down</stem>
        <beam number="1">continue</beam>
        <lyric default-y="-81" number="1" relative-x="7">
          <syllabic>single</syllabic>
          <text>loaves</text>
        </lyric>
      </note>
      <note default-x="174">
        <pitch>
          <step>D</step>
          <octave>5</octave>
        </pitch>
        <duration>2</duration>
        <voice>1</voice>
        <type>eighth</type>
        <stem default-y="-45">down</stem>
        <beam number="1">end</beam>
        <lyric default-y="-81" number="1" relative-x="7">
          <syllabic>single</syllabic>
          <text>of</text>
        </lyric>
      </note>
      <note default-x="220">
        <pitch>
          <step>D</step>
          <octave>5</octave>
        </pitch>
        <duration>4</duration>
        <voice>1</voice>
        <type>quarter</type>
        <stem default-y="-45">down</stem>
        <lyric default-y="-81" number="1" relative-x="7">
          <syllabic>single</syllabic>
          <text>bread</text>
        </lyric>
      </note>
      <note default-x="275">
        <pitch>
          <step>D</step>
          <octave>5</octave>
        </pitch>
        <duration>2</duration>
        <voice>1</voice>
        <type>eighth</type>
        <stem default-y="-45">down</stem>
        <lyric default-y="-81" number="1" relative-x="7">
          <syllabic>single</syllabic>
          <text>and</text>
        </lyric>
      </note>
    </measure>
    <!--=======================================================-->
    <measure number="20" width="193">
      <note default-x="13">
        <pitch>
          <step>B</step>
          <octave>4</octave>
        </pitch>
        <duration>2</duration>
        <voice>1</voice>
        <type>eighth</type>
        <stem default-y="-55">down</stem>
        <beam number="1">begin</beam>
        <lyric default-y="-81" number="1" relative-x="7">
          <syllabic>begin</syllabic>
          <text>oth</text>
        </lyric>
      </note>
      <note default-x="46">
        <pitch>
          <step>D</step>
          <octave>5</octave>
        </pitch>
        <duration>2</duration>
        <voice>1</voice>
        <type>eighth</type>
        <stem default-y="-52">down</stem>
        <beam number="1">continue</beam>
        <lyric default-y="-81" number="1" relative-x="7">
          <syllabic>end</syllabic>
          <text>er</text>
        </lyric>
      </note>
      <note default-x="82">
        <pitch>
          <step>E</step>
          <octave>5</octave>
        </pitch>
        <duration>2</duration>
        <voice>1</voice>
        <type>eighth</type>
        <stem default-y="-50">down</stem>
        <beam number="1">end</beam>
        <lyric default-y="-81" number="1" relative-x="7">
          <syllabic>single</syllabic>
          <text>fine</text>
        </lyric>
      </note>
      <note default-x="134">
        <pitch>
          <step>D</step>
          <octave>5</octave>
        </pitch>
        <duration>6</duration>
        <voice>1</voice>
        <type>quarter</type>
        <dot/>
        <stem default-y="-45">down</stem>
        <lyric default-y="-81" number="1" relative-x="8">
          <syllabic>single</syllabic>
          <text>things.</text>
        </lyric>
      </note>
    </measure>
    <!--=======================================================-->
    <measure number="21" width="219">
      <note default-x="13">
        <pitch>
          <step>G</step>
          <octave>4</octave>
        </pitch>
        <duration>4</duration>
        <voice>1</voice>
        <type>quarter</type>
        <stem default-y="5">up</stem>
        <lyric default-y="-81" number="1" relative-x="7">
          <syllabic>single</syllabic>
          <text>Don't</text>
        </lyric>
      </note>
      <note default-x="66">
        <pitch>
          <step>A</step>
          <octave>4</octave>
        </pitch>
        <duration>2</duration>
        <voice>1</voice>
        <type>eighth</type>
        <stem default-y="10">up</stem>
        <lyric default-y="-81" number="1" relative-x="7">
          <syllabic>single</syllabic>
          <text>you</text>
        </lyric>
      </note>
      <note default-x="114">
        <pitch>
          <step>B</step>
          <octave>4</octave>
        </pitch>
        <duration>2</duration>
        <voice>1</voice>
        <type>eighth</type>
        <stem default-y="-55">down</stem>
        <beam number="1">begin</beam>
        <lyric default-y="-81" number="1" relative-x="7">
          <syllabic>single</syllabic>
          <text>think</text>
        </lyric>
      </note>
      <note default-x="151">
        <pitch>
          <step>B</step>
          <octave>4</octave>
        </pitch>
        <duration>2</duration>
        <voice>1</voice>
        <type>eighth</type>
        <stem default-y="-55">down</stem>
        <beam number="1">continue</beam>
        <lyric default-y="-81" number="1" relative-x="7">
          <syllabic>single</syllabic>
          <text>I</text>
        </lyric>
      </note>
      <note default-x="180">
        <pitch>
          <step>B</step>
          <octave>4</octave>
        </pitch>
        <duration>2</duration>
        <voice>1</voice>
        <type>eighth</type>
        <stem default-y="-55">down</stem>
        <beam number="1">end</beam>
        <lyric default-y="-81" number="1" relative-x="7">
          <syllabic>single</syllabic>
          <text>did</text>
        </lyric>
      </note>
    </measure>
    <!--=======================================================-->
    <measure number="22" width="248">
      <note default-x="13">
        <pitch>
          <step>D</step>
          <octave>5</octave>
        </pitch>
        <duration>2</duration>
        <voice>1</voice>
        <type>eighth</type>
        <stem default-y="-50">down</stem>
        <beam number="1">begin</beam>
        <lyric default-y="-81" number="1" relative-x="7">
          <syllabic>single</syllabic>
          <text>well</text>
        </lyric>
      </note>
      <note default-x="61">
        <pitch>
          <step>D</step>
          <octave>5</octave>
        </pitch>
        <duration>2</duration>
        <voice>1</voice>
        <type>eighth</type>
        <stem default-y="-52">down</stem>
        <beam number="1">continue</beam>
        <lyric default-y="-81" number="1" relative-x="7">
          <syllabic>single</syllabic>
          <text>with</text>
        </lyric>
      </note>
      <note default-x="104">
        <pitch>
          <step>B</step>
          <octave>4</octave>
        </pitch>
        <duration>2</duration>
        <voice>1</voice>
        <type>eighth</type>
        <stem default-y="-55">down</stem>
        <beam number="1">end</beam>
        <lyric default-y="-81" number="1" relative-x="7">
          <syllabic>single</syllabic>
          <text>my</text>
        </lyric>
      </note>
      <note default-x="142">
        <pitch>
          <step>A</step>
          <octave>4</octave>
        </pitch>
        <duration>2</duration>
        <voice>1</voice>
        <type>eighth</type>
        <stem default-y="10">up</stem>
        <beam number="1">begin</beam>
        <lyric default-y="-81" number="1" relative-x="7">
          <syllabic>begin</syllabic>
          <text>jol</text>
        </lyric>
      </note>
      <note default-x="174">
        <pitch>
          <step>G</step>
          <octave>4</octave>
        </pitch>
        <duration>2</duration>
        <voice>1</voice>
        <type>eighth</type>
        <stem default-y="8">up</stem>
        <beam number="1">continue</beam>
        <lyric default-y="-81" number="1" relative-x="7">
          <syllabic>end</syllabic>
          <text>ly</text>
        </lyric>
      </note>
      <note default-x="208">
        <pitch>
          <step>F</step>
          <alter>1</alter>
          <octave>4</octave>
        </pitch>
        <duration>2</duration>
        <voice>1</voice>
        <type>eighth</type>
        <stem default-y="5">up</stem>
        <beam number="1">end</beam>
        <lyric default-y="-81" number="1" relative-x="7">
          <syllabic>begin</syllabic>
          <text>har</text>
        </lyric>
      </note>
    </measure>
    <!--=======================================================-->
    <measure number="23" width="105">
      <note default-x="14">
        <pitch>
          <step>G</step>
          <octave>4</octave>
        </pitch>
        <duration>6</duration>
        <tie type="start"/>
        <voice>1</voice>
        <type>quarter</type>
        <dot/>
        <stem default-y="5">up</stem>
        <notations>
          <tied type="start"/>
        </notations>
        <lyric default-y="-81" number="1" relative-x="13">
          <syllabic>end</syllabic>
          <text>rin'?</text>
        </lyric>
      </note>
      <note default-x="62">
        <pitch>
          <step>G</step>
          <octave>4</octave>
        </pitch>
        <duration>4</duration>
        <tie type="stop"/>
        <voice>1</voice>
        <type>quarter</type>
        <stem default-y="5">up</stem>
        <notations>
          <tied type="stop"/>
        </notations>
      </note>
      <barline location="right">
        <bar-style>light-light</bar-style>
      </barline>
    </measure>
    <!--=======================================================-->
    <measure number="24" width="113">
      <print new-system="yes"/>
      <direction placement="above">
        <direction-type>
          <words default-y="38" font-family="FreeSerif" font-size="10" font-style="italic" relative-x="-80">Verses 3, 4, 5, 6, 7.</words>
        </direction-type>
      </direction>
      <note default-x="77">
        <pitch>
          <step>D</step>
          <octave>5</octave>
        </pitch>
        <duration>2</duration>
        <voice>1</voice>
        <type>eighth</type>
        <stem default-y="-45">down</stem>
        <lyric default-y="-81" number="1" relative-x="7">
          <syllabic>single</syllabic>
          <text>O</text>
        </lyric>
      </note>
    </measure>
    <!--=======================================================-->
    <measure number="25" width="220">
      <note default-x="13">
        <pitch>
          <step>D</step>
          <octave>5</octave>
        </pitch>
        <duration>2</duration>
        <voice>1</voice>
        <type>eighth</type>
        <stem default-y="-45">down</stem>
        <beam number="1">begin</beam>
        <lyric default-y="-81" number="1" relative-x="7">
          <syllabic>single</syllabic>
          <text>what</text>
        </lyric>
      </note>
      <note default-x="56">
        <pitch>
          <step>D</step>
          <octave>5</octave>
        </pitch>
        <duration>2</duration>
        <voice>1</voice>
        <type>eighth</type>
        <stem default-y="-45">down</stem>
        <beam number="1">continue</beam>
        <lyric default-y="-81" number="1" relative-x="7">
          <syllabic>single</syllabic>
          <text>do</text>
        </lyric>
      </note>
      <note default-x="95">
        <pitch>
          <step>D</step>
          <octave>5</octave>
        </pitch>
        <duration>2</duration>
        <voice>1</voice>
        <type>eighth</type>
        <stem default-y="-45">down</stem>
        <beam number="1">end</beam>
        <lyric default-y="-81" number="1" relative-x="7">
          <syllabic>single</syllabic>
          <text>you</text>
        </lyric>
      </note>
      <note default-x="143">
        <pitch>
          <step>D</step>
          <octave>5</octave>
        </pitch>
        <duration>4</duration>
        <voice>1</voice>
        <type>quarter</type>
        <stem default-y="-45">down</stem>
        <lyric default-y="-81" number="1" relative-x="7">
          <syllabic>single</syllabic>
          <text>think</text>
        </lyric>
      </note>
      <note default-x="188">
        <pitch>
          <step>D</step>
          <octave>5</octave>
        </pitch>
        <duration>2</duration>
        <voice>1</voice>
        <type>eighth</type>
        <stem default-y="-45">down</stem>
        <lyric default-y="-81" number="1" relative-x="7">
          <syllabic>single</syllabic>
          <text>I</text>
        </lyric>
      </note>
    </measure>
    <!--=======================================================-->
    <measure number="26" width="254">
      <note default-x="13">
        <pitch>
          <step>B</step>
          <octave>4</octave>
        </pitch>
        <duration>2</duration>
        <voice>1</voice>
        <type>eighth</type>
        <stem default-y="-55">down</stem>
        <beam number="1">begin</beam>
        <lyric default-y="-81" number="1" relative-x="7">
          <syllabic>single</syllabic>
          <text>made</text>
        </lyric>
      </note>
      <note default-x="65">
        <pitch>
          <step>D</step>
          <octave>5</octave>
        </pitch>
        <duration>2</duration>
        <voice>1</voice>
        <type>eighth</type>
        <stem default-y="-52.5">down</stem>
        <beam number="1">continue</beam>
        <lyric default-y="-81" number="1" relative-x="7">
          <syllabic>single</syllabic>
          <text>with</text>
        </lyric>
      </note>
      <note default-x="110">
        <pitch>
          <step>E</step>
          <octave>5</octave>
        </pitch>
        <duration>2</duration>
        <voice>1</voice>
        <type>eighth</type>
        <stem default-y="-50">down</stem>
        <beam number="1">end</beam>
        <lyric default-y="-81" number="1" relative-x="7">
          <syllabic>single</syllabic>
          <text>his</text>
        </lyric>
      </note>
      <note default-x="151">
        <pitch>
          <step>D</step>
          <octave>5</octave>
        </pitch>
        <duration>4</duration>
        <voice>1</voice>
        <type>quarter</type>
        <stem default-y="-45">down</stem>
        <lyric default-y="-81" number="1" relative-x="11">
          <syllabic>single</syllabic>
          <text>eyes?</text>
        </lyric>
      </note>
      <note default-x="213">
        <pitch>
          <step>D</step>
          <octave>5</octave>
        </pitch>
        <duration>2</duration>
        <voice>1</voice>
        <type>eighth</type>
        <stem default-y="-45">down</stem>
        <lyric default-y="-81" number="1" relative-x="7">
          <syllabic>single</syllabic>
          <text>As</text>
        </lyric>
      </note>
    </measure>
    <!--=======================================================-->
    <measure number="27" width="253">
      <note default-x="13">
        <pitch>
          <step>D</step>
          <octave>5</octave>
        </pitch>
        <duration>2</duration>
        <voice>1</voice>
        <type>eighth</type>
        <stem default-y="-45">down</stem>
        <beam number="1">begin</beam>
        <lyric default-y="-81" number="1" relative-x="7">
          <syllabic>begin</syllabic>
          <text>ma</text>
        </lyric>
      </note>
      <note default-x="51">
        <pitch>
          <step>D</step>
          <octave>5</octave>
        </pitch>
        <duration>2</duration>
        <voice>1</voice>
        <type>eighth</type>
        <stem default-y="-45">down</stem>
        <beam number="1">continue</beam>
        <lyric default-y="-81" number="1" relative-x="7">
          <syllabic>end</syllabic>
          <text>ny</text>
        </lyric>
      </note>
      <note default-x="86">
        <pitch>
          <step>D</step>
          <octave>5</octave>
        </pitch>
        <duration>2</duration>
        <voice>1</voice>
        <type>eighth</type>
        <stem default-y="-45">down</stem>
        <beam number="1">end</beam>
        <lyric default-y="-81" number="1" relative-x="7">
          <syllabic>single</syllabic>
          <text>as</text>
        </lyric>
      </note>
      <note default-x="121">
        <pitch>
          <step>D</step>
          <octave>5</octave>
        </pitch>
        <duration>2</duration>
        <voice>1</voice>
        <type>eighth</type>
        <stem default-y="-45">down</stem>
        <beam number="1">begin</beam>
        <lyric default-y="-81" number="1" relative-x="7">
          <syllabic>begin</syllabic>
          <text>for</text>
        </lyric>
      </note>
      <note default-x="157">
        <pitch>
          <step>D</step>
          <octave>5</octave>
        </pitch>
        <duration>2</duration>
        <voice>1</voice>
        <type>eighth</type>
        <stem default-y="-45">down</stem>
        <beam number="1">continue</beam>
        <lyric default-y="-81" number="1" relative-x="7">
          <syllabic>end</syllabic>
          <text>ty</text>
        </lyric>
      </note>
      <note default-x="203">
        <pitch>
          <step>D</step>
          <octave>5</octave>
        </pitch>
        <duration>2</duration>
        <voice>1</voice>
        <type>eighth</type>
        <stem default-y="-45">down</stem>
        <beam number="1">end</beam>
        <lyric default-y="-81" number="1" relative-x="7">
          <syllabic>single</syllabic>
          <text>mince</text>
        </lyric>
      </note>
    </measure>
    <!--=======================================================-->
    <measure number="28" width="242">
      <note default-x="14">
        <pitch>
          <step>D</step>
          <octave>5</octave>
        </pitch>
        <duration>4</duration>
        <voice>1</voice>
        <type>quarter</type>
        <stem default-y="-45">down</stem>
        <lyric default-y="-81" number="1" relative-x="7">
          <syllabic>single</syllabic>
          <text>cakes</text>
        </lyric>
      </note>
      <note default-x="70">
        <pitch>
          <step>D</step>
          <octave>5</octave>
        </pitch>
        <duration>2</duration>
        <voice>1</voice>
        <type>eighth</type>
        <stem default-y="-45">down</stem>
        <lyric default-y="-81" number="1" relative-x="7">
          <syllabic>single</syllabic>
          <text>and</text>
        </lyric>
      </note>
      <note default-x="109">
        <pitch>
          <step>B</step>
          <octave>4</octave>
        </pitch>
        <duration>2</duration>
        <voice>1</voice>
        <type>eighth</type>
        <stem default-y="-55">down</stem>
        <beam number="1">begin</beam>
        <lyric default-y="-81" number="1" relative-x="7">
          <syllabic>begin</syllabic>
          <text>fif</text>
        </lyric>
      </note>
      <note default-x="146">
        <pitch>
          <step>D</step>
          <octave>5</octave>
        </pitch>
        <duration>2</duration>
        <voice>1</voice>
        <type>eighth</type>
        <stem default-y="-53">down</stem>
        <beam number="1">continue</beam>
        <lyric default-y="-81" number="1" relative-x="7">
          <syllabic>end</syllabic>
          <text>ty</text>
        </lyric>
      </note>
      <note default-x="192">
        <pitch>
          <step>E</step>
          <octave>5</octave>
        </pitch>
        <duration>2</duration>
        <voice>1</voice>
        <type>eighth</type>
        <stem default-y="-50">down</stem>
        <beam number="1">end</beam>
        <lyric default-y="-81" number="1" relative-x="7">
          <syllabic>single</syllabic>
          <text>mince</text>
        </lyric>
      </note>
    </measure>
    <!--=======================================================-->
    <measure number="29" width="280">
      <print new-system="yes">
        <system-layout>
          <system-margins>
            <left-margin>0</left-margin>
            <right-margin>1</right-margin>
          </system-margins>
          <system-distance>98</system-distance>
        </system-layout>
      </print>
      <note default-x="77">
        <pitch>
          <step>D</step>
          <octave>5</octave>
        </pitch>
        <duration>6</duration>
        <tie type="start"/>
        <voice>1</voice>
        <type>quarter</type>
        <dot/>
        <stem default-y="-45">down</stem>
        <notations>
          <tied type="start"/>
        </notations>
        <lyric default-y="-81" number="1" relative-x="7">
          <syllabic>single</syllabic>
          <text>pies</text>
        </lyric>
      </note>
      <note default-x="145">
        <pitch>
          <step>D</step>
          <octave>5</octave>
        </pitch>
        <duration>2</duration>
        <tie type="stop"/>
        <voice>1</voice>
        <type>eighth</type>
        <stem default-y="-45">down</stem>
        <notations>
          <tied type="stop"/>
        </notations>
      </note>
      <note default-x="185">
        <pitch>
          <step>D</step>
          <octave>5</octave>
        </pitch>
        <duration>2</duration>
        <voice>1</voice>
        <type>eighth</type>
        <stem default-y="-45">down</stem>
        <beam number="1">begin</beam>
        <lyric default-y="-81" number="1" relative-x="7">
          <syllabic>single</syllabic>
          <text>There</text>
        </lyric>
      </note>
      <note default-x="236">
        <pitch>
          <step>D</step>
          <octave>5</octave>
        </pitch>
        <duration>2</duration>
        <voice>1</voice>
        <type>eighth</type>
        <stem default-y="-45">down</stem>
        <beam number="1">end</beam>
        <lyric default-y="-81" number="1" relative-x="7">
          <syllabic>single</syllabic>
          <text>was</text>
        </lyric>
      </note>
    </measure>
    <!--=======================================================-->
    <measure number="30" width="299">
      <note default-x="13">
        <pitch>
          <step>D</step>
          <octave>5</octave>
        </pitch>
        <duration>2</duration>
        <voice>1</voice>
        <type>eighth</type>
        <stem default-y="-45">down</stem>
        <lyric default-y="-81" number="1" relative-x="7">
          <syllabic>single</syllabic>
          <text>mince</text>
        </lyric>
      </note>
      <note default-x="73">
        <pitch>
          <step>D</step>
          <octave>5</octave>
        </pitch>
        <duration>4</duration>
        <voice>1</voice>
        <type>quarter</type>
        <stem default-y="-45">down</stem>
        <lyric default-y="-81" number="1" relative-x="7">
          <syllabic>single</syllabic>
          <text>cakes</text>
        </lyric>
      </note>
      <note default-x="143">
        <pitch>
          <step>D</step>
          <octave>5</octave>
        </pitch>
        <duration>2</duration>
        <voice>1</voice>
        <type>eighth</type>
        <stem default-y="-45">down</stem>
        <beam number="1">begin</beam>
        <lyric default-y="-81" number="1" relative-x="7">
          <syllabic>single</syllabic>
          <text>and</text>
        </lyric>
      </note>
      <note default-x="196">
        <pitch>
          <step>D</step>
          <octave>5</octave>
        </pitch>
        <duration>2</duration>
        <voice>1</voice>
        <type>eighth</type>
        <stem default-y="-45">down</stem>
        <beam number="1">continue</beam>
        <lyric default-y="-81" number="1" relative-x="7">
          <syllabic>single</syllabic>
          <text>there</text>
        </lyric>
      </note>
      <note default-x="249">
        <pitch>
          <step>D</step>
          <octave>5</octave>
        </pitch>
        <duration>2</duration>
        <voice>1</voice>
        <type>eighth</type>
        <stem default-y="-45">down</stem>
        <beam number="1">end</beam>
        <lyric default-y="-81" number="1" relative-x="7">
          <syllabic>single</syllabic>
          <text>was</text>
        </lyric>
      </note>
    </measure>
    <!--=======================================================-->
    <measure number="31" width="285">
      <note default-x="13">
        <pitch>
          <step>D</step>
          <octave>5</octave>
        </pitch>
        <duration>2</duration>
        <voice>1</voice>
        <type>eighth</type>
        <stem default-y="-45">down</stem>
        <lyric default-y="-81" number="1" relative-x="7">
          <syllabic>single</syllabic>
          <text>mince</text>
        </lyric>
      </note>
      <note default-x="67">
        <pitch>
          <step>D</step>
          <octave>5</octave>
        </pitch>
        <duration>4</duration>
        <voice>1</voice>
        <type>quarter</type>
        <stem default-y="-45">down</stem>
        <lyric default-y="-81" number="1" relative-x="7">
          <syllabic>single</syllabic>
          <text>pies</text>
        </lyric>
      </note>
      <note default-x="134">
        <pitch>
          <step>D</step>
          <octave>5</octave>
        </pitch>
        <duration>2</duration>
        <voice>1</voice>
        <type>eighth</type>
        <stem default-y="-45">down</stem>
        <beam number="1">begin</beam>
        <lyric default-y="-81" number="1" relative-x="7">
          <syllabic>single</syllabic>
          <text>and</text>
        </lyric>
      </note>
      <note default-x="185">
        <pitch>
          <step>D</step>
          <octave>5</octave>
        </pitch>
        <duration>2</duration>
        <voice>1</voice>
        <type>eighth</type>
        <stem default-y="-45">down</stem>
        <beam number="1">continue</beam>
        <lyric default-y="-81" number="1" relative-x="7">
          <syllabic>single</syllabic>
          <text>there</text>
        </lyric>
      </note>
      <note default-x="236">
        <pitch>
          <step>D</step>
          <octave>5</octave>
        </pitch>
        <duration>2</duration>
        <voice>1</voice>
        <type>eighth</type>
        <stem default-y="-45">down</stem>
        <beam number="1">end</beam>
        <lyric default-y="-81" number="1" relative-x="7">
          <syllabic>single</syllabic>
          <text>was</text>
        </lyric>
      </note>
    </measure>
    <!--=======================================================-->
    <measure number="32" width="217">
      <note default-x="13">
        <pitch>
          <step>B</step>
          <octave>4</octave>
        </pitch>
        <duration>2</duration>
        <voice>1</voice>
        <type>eighth</type>
        <stem default-y="-54.5">down</stem>
        <beam number="1">begin</beam>
        <lyric default-y="-81" number="1" relative-x="7">
          <syllabic>begin</syllabic>
          <text>oth</text>
        </lyric>
      </note>
      <note default-x="52">
        <pitch>
          <step>D</step>
          <octave>5</octave>
        </pitch>
        <duration>2</duration>
        <voice>1</voice>
        <type>eighth</type>
        <stem default-y="-52.5">down</stem>
        <beam number="1">continue</beam>
        <lyric default-y="-81" number="1" relative-x="7">
          <syllabic>end</syllabic>
          <text>er</text>
        </lyric>
      </note>
      <note default-x="92">
        <pitch>
          <step>E</step>
          <octave>5</octave>
        </pitch>
        <duration>2</duration>
        <voice>1</voice>
        <type>eighth</type>
        <stem default-y="-50">down</stem>
        <beam number="1">end</beam>
        <lyric default-y="-81" number="1" relative-x="7">
          <syllabic>single</syllabic>
          <text>fine</text>
        </lyric>
      </note>
      <note default-x="143">
        <pitch>
          <step>D</step>
          <octave>5</octave>
        </pitch>
        <duration>6</duration>
        <voice>1</voice>
        <type>quarter</type>
        <dot/>
        <stem default-y="-45">down</stem>
        <lyric default-y="-81" number="1" relative-x="8">
          <syllabic>single</syllabic>
          <text>things.</text>
        </lyric>
      </note>
    </measure>
    <!--=======================================================-->
    <measure number="33" width="455">
      <print new-system="yes">
        <system-layout>
          <system-distance>96</system-distance>
        </system-layout>
      </print>
      <note default-x="77">
        <pitch>
          <step>G</step>
          <octave>4</octave>
        </pitch>
        <duration>4</duration>
        <voice>1</voice>
        <type>quarter</type>
        <stem default-y="5">up</stem>
        <lyric default-y="-81" number="1" relative-x="7">
          <syllabic>single</syllabic>
          <text>Don't</text>
        </lyric>
      </note>
      <note default-x="186">
        <pitch>
          <step>A</step>
          <octave>4</octave>
        </pitch>
        <duration>2</duration>
        <voice>1</voice>
        <type>eighth</type>
        <stem default-y="10">up</stem>
        <lyric default-y="-81" number="1" relative-x="7">
          <syllabic>single</syllabic>
          <text>you</text>
        </lyric>
      </note>
      <note default-x="253">
        <pitch>
          <step>B</step>
          <octave>4</octave>
        </pitch>
        <duration>2</duration>
        <voice>1</voice>
        <type>eighth</type>
        <stem default-y="-55">down</stem>
        <beam number="1">begin</beam>
        <lyric default-y="-81" number="1" relative-x="7">
          <syllabic>single</syllabic>
          <text>think</text>
        </lyric>
      </note>
      <note default-x="320">
        <pitch>
          <step>B</step>
          <octave>4</octave>
        </pitch>
        <duration>2</duration>
        <voice>1</voice>
        <type>eighth</type>
        <stem default-y="-55">down</stem>
        <beam number="1">continue</beam>
        <lyric default-y="-81" number="1" relative-x="7">
          <syllabic>single</syllabic>
          <text>I</text>
        </lyric>
      </note>
      <note default-x="387">
        <pitch>
          <step>B</step>
          <octave>4</octave>
        </pitch>
        <duration>2</duration>
        <voice>1</voice>
        <type>eighth</type>
        <stem default-y="-55">down</stem>
        <beam number="1">end</beam>
        <lyric default-y="-81" number="1" relative-x="7">
          <syllabic>single</syllabic>
          <text>did</text>
        </lyric>
      </note>
    </measure>
    <!--=======================================================-->
    <measure number="34" width="442">
      <note default-x="14">
        <pitch>
          <step>D</step>
          <octave>5</octave>
        </pitch>
        <duration>2</duration>
        <voice>1</voice>
        <type>eighth</type>
        <stem default-y="-50">down</stem>
        <beam number="1">begin</beam>
        <lyric default-y="-76" number="1" relative-x="7">
          <syllabic>single</syllabic>
          <text>well</text>
        </lyric>
      </note>
      <note default-x="85">
        <pitch>
          <step>D</step>
          <octave>5</octave>
        </pitch>
        <duration>2</duration>
        <voice>1</voice>
        <type>eighth</type>
        <stem default-y="-52">down</stem>
        <beam number="1">continue</beam>
        <lyric default-y="-76" number="1" relative-x="7">
          <syllabic>single</syllabic>
          <text>with</text>
        </lyric>
      </note>
      <note default-x="156">
        <pitch>
          <step>B</step>
          <octave>4</octave>
        </pitch>
        <duration>2</duration>
        <voice>1</voice>
        <type>eighth</type>
        <stem default-y="-55">down</stem>
        <beam number="1">end</beam>
        <lyric default-y="-76" number="1" relative-x="7">
          <syllabic>single</syllabic>
          <text>my</text>
        </lyric>
      </note>
      <note default-x="227">
        <pitch>
          <step>A</step>
          <octave>4</octave>
        </pitch>
        <duration>2</duration>
        <voice>1</voice>
        <type>eighth</type>
        <stem default-y="10">up</stem>
        <beam number="1">begin</beam>
        <lyric default-y="-76" number="1" relative-x="7">
          <syllabic>begin</syllabic>
          <text>jol</text>
        </lyric>
      </note>
      <note default-x="299">
        <pitch>
          <step>G</step>
          <octave>4</octave>
        </pitch>
        <duration>2</duration>
        <voice>1</voice>
        <type>eighth</type>
        <stem default-y="7.5">up</stem>
        <beam number="1">continue</beam>
        <lyric default-y="-76" number="1" relative-x="7">
          <syllabic>end</syllabic>
          <text>ly</text>
        </lyric>
      </note>
      <note default-x="369">
        <pitch>
          <step>F</step>
          <alter>1</alter>
          <octave>4</octave>
        </pitch>
        <duration>2</duration>
        <voice>1</voice>
        <type>eighth</type>
        <stem default-y="5">up</stem>
        <beam number="1">end</beam>
        <lyric default-y="-76" number="1" relative-x="7">
          <syllabic>begin</syllabic>
          <text>har</text>
        </lyric>
      </note>
    </measure>
    <!--=======================================================-->
    <measure number="35" width="185">
      <note default-x="14">
        <pitch>
          <step>G</step>
          <octave>4</octave>
        </pitch>
        <duration>6</duration>
        <tie type="start"/>
        <voice>1</voice>
        <type>quarter</type>
        <dot/>
        <stem default-y="5">up</stem>
        <notations>
          <tied type="start"/>
        </notations>
        <lyric default-y="-76" number="1" relative-x="13">
          <syllabic>end</syllabic>
          <text>rin'?</text>
        </lyric>
      </note>
      <note default-x="105">
        <pitch>
          <step>G</step>
          <octave>4</octave>
        </pitch>
        <duration>4</duration>
        <tie type="stop"/>
        <voice>1</voice>
        <type>quarter</type>
        <stem default-y="5">up</stem>
        <notations>
          <tied type="stop"/>
        </notations>
      </note>
      <barline location="right">
        <bar-style>light-heavy</bar-style>
      </barline>
    </measure>
  </part>
  <!--=========================================================-->
</score-partwise>
